<svg viewBox="0 0 16 18" xmlns="http://www.w3.org/2000/svg">
  <g transform="matrix(1,0,0,1,-4258.57,-2801.3)">
    <g transform="matrix(0.0909091,0,0,0.0909091,4254.86,2798.66)">
      <path
        d="M106,128L46.29,93.526C41.032,90.491 39.228,83.758 42.263,78.5C45.299,73.242 52.032,71.438 57.29,74.474L117,108.947L117,40C117,33.929 121.929,29 128,29C134.071,29 139,33.929 139,40L139,108.947L198.71,74.474C203.968,71.438 210.701,73.242 213.737,78.5C216.772,83.758 214.968,90.491 209.71,93.526L150,128L209.71,162.474C214.968,165.509 216.772,172.242 213.737,177.5C210.701,182.758 203.968,184.562 198.71,181.526L139,147.053L139,216C139,222.071 134.071,227 128,227C121.929,227 117,222.071 117,216L117,147.053L57.29,181.526C52.032,184.562 45.299,182.758 42.263,177.5C39.228,172.242 41.032,165.509 46.29,162.474L106,128Z"
        style="fill:var(--on-primary)"/>
    </g>
  </g>
</svg>
