<svg viewBox="0 0 256 256" xmlns="http://www.w3.org/2000/svg">><path d="m70.146 82.87891a8.00043 8.00043 0 0 0 -11.26758-1.02442l-48 40a7.99963 7.99963 0 0 0 0 12.291l48 40a7.99987 7.99987 0 1 0 10.24316-12.291l-40.625-33.85449 40.625-33.85449a7.99977 7.99977 0 0 0 1.02442-11.2666z"/><path d="m245.12158 121.85449-48-40a7.99987 7.99987 0 1 0 -10.24316 12.291l40.625 33.85451-40.625 33.85449a7.99987 7.99987 0 1 0 10.24316 12.291l48-40a7.99963 7.99963 0 0 0 0-12.291z"/><path d="m162.73389 32.48145a8.005 8.005 0 0 0 -10.25244 4.78418l-64 176a8.00034 8.00034 0 1 0 15.0371 5.46875l64-176a8.0008 8.0008 0 0 0 -4.78466-10.25293z"/></svg>
