<svg viewBox="0 0 24 24" xmlns="http://www.w3.org/2000/svg">
    <path d="M22.75,12C22.75,17.937 17.937,22.75 12,22.75C6.063,22.75 1.25,17.937 1.25,12C1.25,6.063 6.063,1.25 12,1.25C17.937,1.25 22.75,6.063 22.75,12ZM21.25,12C21.25,6.891 17.109,2.75 12,2.75C6.891,2.75 2.75,6.891 2.75,12C2.75,17.109 6.891,21.25 12,21.25C17.109,21.25 21.25,17.109 21.25,12ZM8.5,9.75L8.249,9.725L8.013,9.651L7.801,9.536L7.616,9.384L7.464,9.199L7.349,8.987L7.275,8.751L7.25,8.5L7.275,8.249L7.349,8.013L7.464,7.801L7.616,7.616L7.801,7.464L8.013,7.349L8.249,7.275L8.5,7.25L8.751,7.275L8.987,7.349L9.199,7.464L9.384,7.616L9.536,7.801L9.651,8.013L9.725,8.249L9.75,8.5L9.725,8.751L9.651,8.987L9.536,9.199L9.384,9.384L9.199,9.536L8.987,9.651L8.751,9.725L8.5,9.75ZM6.9,14.95C6.652,14.619 6.719,14.148 7.05,13.9C7.381,13.652 7.852,13.719 8.1,14.05C8.1,14.05 9.408,15.75 12,15.75C14.592,15.75 15.9,14.05 15.9,14.05C16.148,13.719 16.619,13.652 16.95,13.9C17.281,14.148 17.348,14.619 17.1,14.95C17.1,14.95 15.408,17.25 12,17.25C8.592,17.25 6.9,14.95 6.9,14.95ZM14,9.75C13.586,9.75 13.25,9.414 13.25,9C13.25,8.586 13.586,8.25 14,8.25L16,8.25C16.414,8.25 16.75,8.586 16.75,9C16.75,9.414 16.414,9.75 16,9.75L14,9.75Z"/>
</svg>
