<svg viewBox="0 0 28 28" xmlns="http://www.w3.org/2000/svg"><path d="M14.012,0C6.264,0 0,6.31 0,14.116C0,20.355 4.013,25.637 9.581,27.507C10.277,27.647 10.532,27.203 10.532,26.829C10.532,26.502 10.509,25.38 10.509,24.212C6.611,25.053 5.799,22.529 5.799,22.529C5.173,20.893 4.245,20.472 4.245,20.472C2.969,19.608 4.338,19.608 4.338,19.608C5.753,19.701 6.496,21.057 6.496,21.057C7.748,23.207 9.766,22.599 10.578,22.225C10.694,21.314 11.066,20.683 11.46,20.332C8.351,20.005 5.08,18.79 5.08,13.368C5.08,11.825 5.637,10.563 6.519,9.582C6.379,9.231 5.892,7.782 6.658,5.843C6.658,5.843 7.841,5.469 10.509,7.291C11.651,6.982 12.828,6.825 14.012,6.824C15.195,6.824 16.401,6.988 17.514,7.291C20.182,5.469 21.365,5.843 21.365,5.843C22.131,7.782 21.643,9.231 21.504,9.582C22.409,10.563 22.943,11.825 22.943,13.368C22.943,18.79 19.672,19.981 16.54,20.332C17.051,20.776 17.491,21.617 17.491,22.95C17.491,24.842 17.468,26.362 17.468,26.829C17.468,27.203 17.723,27.647 18.419,27.507C23.987,25.637 28,20.355 28,14.116C28.023,6.31 21.736,0 14.012,0Z"/></svg>
