<svg viewBox="0 0 28 28" xmlns="http://www.w3.org/2000/svg"><path d="M23.864,15.594C23.864,11.509 21.325,10.115 18.977,10.115C16.805,10.115 15.384,11.521 14.976,12.344L14.922,12.344L14.922,10.492L10.874,10.492L10.874,23.864L15.083,23.864L15.083,16.614C15.083,14.681 16.309,13.741 17.557,13.741C18.739,13.741 19.655,14.405 19.655,16.56L19.655,23.864L23.864,23.864L23.864,15.594ZM8.667,6.213C8.667,4.816 7.581,3.795 6.241,3.795C4.901,3.795 3.814,4.816 3.814,6.213C3.814,7.608 4.901,8.628 6.241,8.628C7.581,8.628 8.667,7.608 8.667,6.213ZM8.345,10.481L4.136,10.481L4.136,23.853L8.345,23.853L8.345,10.481ZM28,2.067L28,25.933C28,27.073 27.074,27.998 25.933,27.998L2.067,27.998C0.926,27.998 0,27.073 0,25.933L0,2.067C0,0.926 0.926,0 2.067,0L25.933,0C27.074,0 28,0.926 28,2.067Z"/></svg>
