<svg viewBox="0 0 35 26" xmlns="http://www.w3.org/2000/svg"><path d="M21.314,0c2.337,0.015 4.23,1.917 4.23,4.257c0,2.35 -1.908,4.258 -4.258,4.258l-12.771,0l0,12.771c0,2.35 -1.908,4.258 -4.258,4.258c-2.349,0 -4.257,-1.908 -4.257,-4.258l0,-17.029c0,-2.349 1.908,-4.257 4.257,-4.257l17.029,0l0.028,0Zm5.477,9.762c0.771,-0.771 1.835,-1.247 3.01,-1.247c2.35,0 4.257,1.907 4.257,4.257c0,1.175 -0.477,2.239 -1.247,3.01l0,0l-8.514,8.515l-0.001,-0.001c-0.77,0.771 -1.835,1.248 -3.01,1.248c-1.174,0 -2.239,-0.477 -3.009,-1.248l-0.001,0.001l-8.515,-8.515l0.001,0c-0.771,-0.771 -1.247,-1.835 -1.247,-3.01c0,-2.35 1.907,-4.257 4.257,-4.257c1.175,0 2.239,0.476 3.01,1.247l0,-0.001l5.504,5.505l5.505,-5.505l0,0.001Z" /></svg>
