<svg viewBox="0 0 35 26" xmlns="http://www.w3.org/2000/svg"><path d="m21.314 0c2.337.015 4.23 1.917 4.23 4.257 0 2.35-1.908 4.258-4.258 4.258h-12.771v12.771c0 2.35-1.908 4.258-4.258 4.258-2.349 0-4.257-1.908-4.257-4.258v-17.029c0-2.349 1.908-4.257 4.257-4.257h17.029.028zm5.477 9.762c.771-.771 1.835-1.247 3.01-1.247 2.35 0 4.257 1.907 4.257 4.257 0 1.175-.477 2.239-1.247 3.01l-8.514 8.515-.001-.001c-.77.771-1.835 1.248-3.01 1.248-1.174 0-2.239-.477-3.009-1.248l-.001.001-8.515-8.515h.001c-.771-.771-1.247-1.835-1.247-3.01 0-2.35 1.907-4.257 4.257-4.257 1.175 0 2.239.476 3.01 1.247v-.001l5.504 5.505 5.505-5.505z"/></svg>