<svg viewBox="0 0 256 256" xmlns="http://www.w3.org/2000/svg"><circle cx="128" cy="128" r="68"/><path d="m128 44a7.99993 7.99993 0 0 0 8-8v-8a8 8 0 0 0 -16 0v8a7.99993 7.99993 0 0 0 8 8z"/><path d="m57.28906 68.603a8 8 0 1 0 11.31394-11.31345l-5.65674-5.657a7.99983 7.99983 0 1 0 -11.31345 11.31345z"/><path d="m36 120h-8a8 8 0 0 0 0 16h8a8 8 0 0 0 0-16z"/><path d="m57.28955 187.397-5.65674 5.65674a7.99984 7.99984 0 1 0 11.31348 11.31348l5.65674-5.65674a7.99984 7.99984 0 0 0 -11.31348-11.31348z"/><path d="m128 212a7.99977 7.99977 0 0 0 -8 8v8a8 8 0 0 0 16 0v-8a7.99977 7.99977 0 0 0 -8-8z"/><path d="m198.71045 187.397a7.99984 7.99984 0 0 0 -11.31345 11.31345l5.65674 5.65674a7.99984 7.99984 0 0 0 11.31348-11.31348z"/><path d="m228 120h-8a8 8 0 0 0 0 16h8a8 8 0 0 0 0-16z"/><path d="m193.05371 70.94629a7.977 7.977 0 0 0 5.65723-2.34326l5.65625-5.657a7.99983 7.99983 0 1 0 -11.31348-11.31347l-5.65674 5.657a7.99988 7.99988 0 0 0 5.65674 13.65674z"/></svg>