<?xml version="1.0" encoding="UTF-8"?>
<!-- This file is generated by npm run build:icons -->
<svg xmlns="http://www.w3.org/2000/svg" width="0" height="0">
<defs>
<symbol viewBox="0 0 16 18" id="asterix">
  <g transform="matrix(1,0,0,1,-4258.57,-2801.3)">
    <g transform="matrix(0.0909091,0,0,0.0909091,4254.86,2798.66)">
      <path         d="M106,128L46.29,93.526C41.032,90.491 39.228,83.758 42.263,78.5C45.299,73.242 52.032,71.438 57.29,74.474L117,108.947L117,40C117,33.929 121.929,29 128,29C134.071,29 139,33.929 139,40L139,108.947L198.71,74.474C203.968,71.438 210.701,73.242 213.737,78.5C216.772,83.758 214.968,90.491 209.71,93.526L150,128L209.71,162.474C214.968,165.509 216.772,172.242 213.737,177.5C210.701,182.758 203.968,184.562 198.71,181.526L139,147.053L139,216C139,222.071 134.071,227 128,227C121.929,227 117,222.071 117,216L117,147.053L57.29,181.526C52.032,184.562 45.299,182.758 42.263,177.5C39.228,172.242 41.032,165.509 46.29,162.474L106,128Z"
        style="fill:var(--on-primary)"></path>
    </g>
  </g>
</symbol>
<symbol viewBox="0 0 256 256" id="code">><path d="m70.146 82.87891a8.00043 8.00043 0 0 0 -11.26758-1.02442l-48 40a7.99963 7.99963 0 0 0 0 12.291l48 40a7.99987 7.99987 0 1 0 10.24316-12.291l-40.625-33.85449 40.625-33.85449a7.99977 7.99977 0 0 0 1.02442-11.2666z"></path><path d="m245.12158 121.85449-48-40a7.99987 7.99987 0 1 0 -10.24316 12.291l40.625 33.85451-40.625 33.85449a7.99987 7.99987 0 1 0 10.24316 12.291l48-40a7.99963 7.99963 0 0 0 0-12.291z"></path><path d="m162.73389 32.48145a8.005 8.005 0 0 0 -10.25244 4.78418l-64 176a8.00034 8.00034 0 1 0 15.0371 5.46875l64-176a8.0008 8.0008 0 0 0 -4.78466-10.25293z"></path></symbol>
<symbol viewBox="0 0 35 26" id="logo-flovan"><path d="M21.314,0c2.337,0.015 4.23,1.917 4.23,4.257c0,2.35 -1.908,4.258 -4.258,4.258l-12.771,0l0,12.771c0,2.35 -1.908,4.258 -4.258,4.258c-2.349,0 -4.257,-1.908 -4.257,-4.258l0,-17.029c0,-2.349 1.908,-4.257 4.257,-4.257l17.029,0l0.028,0Zm5.477,9.762c0.771,-0.771 1.835,-1.247 3.01,-1.247c2.35,0 4.257,1.907 4.257,4.257c0,1.175 -0.477,2.239 -1.247,3.01l0,0l-8.514,8.515l-0.001,-0.001c-0.77,0.771 -1.835,1.248 -3.01,1.248c-1.174,0 -2.239,-0.477 -3.009,-1.248l-0.001,0.001l-8.515,-8.515l0.001,0c-0.771,-0.771 -1.247,-1.835 -1.247,-3.01c0,-2.35 1.907,-4.257 4.257,-4.257c1.175,0 2.239,0.476 3.01,1.247l0,-0.001l5.504,5.505l5.505,-5.505l0,0.001Z" ></path></symbol>
<symbol viewBox="0 0 256 256" id="moon"><path d="m228.25781 131.08594a7.97081 7.97081 0 0 0 -7.875-.89844 72.03888 72.03888 0 0 1 -94.58594-94.57031 7.99837 7.99837 0 0 0 -8.14062-11.10938 104.00405 104.00405 0 1 0 113.83594 113.82032 7.99431 7.99431 0 0 0 -3.23438-7.24219z"></path></symbol>
<symbol viewBox="0 0 256 256" id="sun"><circle cx="128" cy="128" r="68"></circle><path d="m128 44a7.99993 7.99993 0 0 0 8-8v-8a8 8 0 0 0 -16 0v8a7.99993 7.99993 0 0 0 8 8z"></path><path d="m57.28906 68.603a8 8 0 1 0 11.31394-11.31345l-5.65674-5.657a7.99983 7.99983 0 1 0 -11.31345 11.31345z"></path><path d="m36 120h-8a8 8 0 0 0 0 16h8a8 8 0 0 0 0-16z"></path><path d="m57.28955 187.397-5.65674 5.65674a7.99984 7.99984 0 1 0 11.31348 11.31348l5.65674-5.65674a7.99984 7.99984 0 0 0 -11.31348-11.31348z"></path><path d="m128 212a7.99977 7.99977 0 0 0 -8 8v8a8 8 0 0 0 16 0v-8a7.99977 7.99977 0 0 0 -8-8z"></path><path d="m198.71045 187.397a7.99984 7.99984 0 0 0 -11.31345 11.31345l5.65674 5.65674a7.99984 7.99984 0 0 0 11.31348-11.31348z"></path><path d="m228 120h-8a8 8 0 0 0 0 16h8a8 8 0 0 0 0-16z"></path><path d="m193.05371 70.94629a7.977 7.977 0 0 0 5.65723-2.34326l5.65625-5.657a7.99983 7.99983 0 1 0 -11.31348-11.31347l-5.65674 5.657a7.99988 7.99988 0 0 0 5.65674 13.65674z"></path></symbol>
</defs>
</svg>
