<!-- This file was generated by `npm run build:icons` -->
<svg xmlns="http://www.w3.org/2000/svg" width="0" height="0">
<defs>
<symbol viewBox="0 0 16 18" id="asterix"><path d="m5.928 9-5.428-3.134c-.478-.276-.642-.888-.366-1.366s.888-.642 1.366-.366l5.428 3.134v-6.268c0-.552.448-1 1-1s1 .448 1 1v6.268l5.428-3.134c.478-.276 1.09-.112 1.366.366s.112 1.09-.366 1.366l-5.428 3.134 5.428 3.134c.478.276.642.888.366 1.366s-.888.642-1.366.366l-5.428-3.134v6.268c0 .552-.448 1-1 1s-1-.448-1-1v-6.268l-5.428 3.134c-.478.276-1.09.112-1.366-.366s-.112-1.09.366-1.366z"></path></symbol>
<symbol viewBox="0 0 256 256" id="code">><path d="m70.146 82.87891a8.00043 8.00043 0 0 0 -11.26758-1.02442l-48 40a7.99963 7.99963 0 0 0 0 12.291l48 40a7.99987 7.99987 0 1 0 10.24316-12.291l-40.625-33.85449 40.625-33.85449a7.99977 7.99977 0 0 0 1.02442-11.2666z"></path><path d="m245.12158 121.85449-48-40a7.99987 7.99987 0 1 0 -10.24316 12.291l40.625 33.85451-40.625 33.85449a7.99987 7.99987 0 1 0 10.24316 12.291l48-40a7.99963 7.99963 0 0 0 0-12.291z"></path><path d="m162.73389 32.48145a8.005 8.005 0 0 0 -10.25244 4.78418l-64 176a8.00034 8.00034 0 1 0 15.0371 5.46875l64-176a8.0008 8.0008 0 0 0 -4.78466-10.25293z"></path></symbol>
<symbol viewBox="0 0 28 28" id="github"><path d="M14.012,0C6.264,0 0,6.31 0,14.116C0,20.355 4.013,25.637 9.581,27.507C10.277,27.647 10.532,27.203 10.532,26.829C10.532,26.502 10.509,25.38 10.509,24.212C6.611,25.053 5.799,22.529 5.799,22.529C5.173,20.893 4.245,20.472 4.245,20.472C2.969,19.608 4.338,19.608 4.338,19.608C5.753,19.701 6.496,21.057 6.496,21.057C7.748,23.207 9.766,22.599 10.578,22.225C10.694,21.314 11.066,20.683 11.46,20.332C8.351,20.005 5.08,18.79 5.08,13.368C5.08,11.825 5.637,10.563 6.519,9.582C6.379,9.231 5.892,7.782 6.658,5.843C6.658,5.843 7.841,5.469 10.509,7.291C11.651,6.982 12.828,6.825 14.012,6.824C15.195,6.824 16.401,6.988 17.514,7.291C20.182,5.469 21.365,5.843 21.365,5.843C22.131,7.782 21.643,9.231 21.504,9.582C22.409,10.563 22.943,11.825 22.943,13.368C22.943,18.79 19.672,19.981 16.54,20.332C17.051,20.776 17.491,21.617 17.491,22.95C17.491,24.842 17.468,26.362 17.468,26.829C17.468,27.203 17.723,27.647 18.419,27.507C23.987,25.637 28,20.355 28,14.116C28.023,6.31 21.736,0 14.012,0Z"></path></symbol>
<symbol viewBox="0 0 28 28" id="linkedin"><path d="M23.864,15.594C23.864,11.509 21.325,10.115 18.977,10.115C16.805,10.115 15.384,11.521 14.976,12.344L14.922,12.344L14.922,10.492L10.874,10.492L10.874,23.864L15.083,23.864L15.083,16.614C15.083,14.681 16.309,13.741 17.557,13.741C18.739,13.741 19.655,14.405 19.655,16.56L19.655,23.864L23.864,23.864L23.864,15.594ZM8.667,6.213C8.667,4.816 7.581,3.795 6.241,3.795C4.901,3.795 3.814,4.816 3.814,6.213C3.814,7.608 4.901,8.628 6.241,8.628C7.581,8.628 8.667,7.608 8.667,6.213ZM8.345,10.481L4.136,10.481L4.136,23.853L8.345,23.853L8.345,10.481ZM28,2.067L28,25.933C28,27.073 27.074,27.998 25.933,27.998L2.067,27.998C0.926,27.998 0,27.073 0,25.933L0,2.067C0,0.926 0.926,0 2.067,0L25.933,0C27.074,0 28,0.926 28,2.067Z"></path></symbol>
<symbol viewBox="0 0 35 26" id="logo-flovan"><path d="m21.314 0c2.337.015 4.23 1.917 4.23 4.257 0 2.35-1.908 4.258-4.258 4.258h-12.771v12.771c0 2.35-1.908 4.258-4.258 4.258-2.349 0-4.257-1.908-4.257-4.258v-17.029c0-2.349 1.908-4.257 4.257-4.257h17.029.028zm5.477 9.762c.771-.771 1.835-1.247 3.01-1.247 2.35 0 4.257 1.907 4.257 4.257 0 1.175-.477 2.239-1.247 3.01l-8.514 8.515-.001-.001c-.77.771-1.835 1.248-3.01 1.248-1.174 0-2.239-.477-3.009-1.248l-.001.001-8.515-8.515h.001c-.771-.771-1.247-1.835-1.247-3.01 0-2.35 1.907-4.257 4.257-4.257 1.175 0 2.239.476 3.01 1.247v-.001l5.504 5.505 5.505-5.505z"></path></symbol>
<symbol viewBox="0 0 256 256" id="moon"><path d="m228.25781 131.08594a7.97081 7.97081 0 0 0 -7.875-.89844 72.03888 72.03888 0 0 1 -94.58594-94.57031 7.99837 7.99837 0 0 0 -8.14062-11.10938 104.00405 104.00405 0 1 0 113.83594 113.82032 7.99431 7.99431 0 0 0 -3.23438-7.24219z"></path></symbol>
<symbol viewBox="0 0 256 256" id="sun"><circle cx="128" cy="128" r="68"></circle><path d="m128 44a7.99993 7.99993 0 0 0 8-8v-8a8 8 0 0 0 -16 0v8a7.99993 7.99993 0 0 0 8 8z"></path><path d="m57.28906 68.603a8 8 0 1 0 11.31394-11.31345l-5.65674-5.657a7.99983 7.99983 0 1 0 -11.31345 11.31345z"></path><path d="m36 120h-8a8 8 0 0 0 0 16h8a8 8 0 0 0 0-16z"></path><path d="m57.28955 187.397-5.65674 5.65674a7.99984 7.99984 0 1 0 11.31348 11.31348l5.65674-5.65674a7.99984 7.99984 0 0 0 -11.31348-11.31348z"></path><path d="m128 212a7.99977 7.99977 0 0 0 -8 8v8a8 8 0 0 0 16 0v-8a7.99977 7.99977 0 0 0 -8-8z"></path><path d="m198.71045 187.397a7.99984 7.99984 0 0 0 -11.31345 11.31345l5.65674 5.65674a7.99984 7.99984 0 0 0 11.31348-11.31348z"></path><path d="m228 120h-8a8 8 0 0 0 0 16h8a8 8 0 0 0 0-16z"></path><path d="m193.05371 70.94629a7.977 7.977 0 0 0 5.65723-2.34326l5.65625-5.657a7.99983 7.99983 0 1 0 -11.31348-11.31347l-5.65674 5.657a7.99988 7.99988 0 0 0 5.65674 13.65674z"></path></symbol>
<symbol viewBox="0 0 28 28" id="x"><path d="M16.305,11.856L26.505,0L24.088,0L15.232,10.294L8.158,0L0,0L10.696,15.567L0,28L2.417,28L11.769,17.129L19.24,28L27.398,28L16.305,11.856L16.305,11.856ZM12.995,15.704L11.911,14.154L3.288,1.82L7.001,1.82L13.96,11.774L15.043,13.324L24.089,26.263L20.377,26.263L12.995,15.705L12.995,15.704Z"></path></symbol>
</defs>
</svg>
