<svg viewBox="0 0 10 8" xmlns="http://www.w3.org/2000/svg">
  <path d="M-0,3L-0,0C2.052,0 3.184,1.36 3.913,3.511C4.045,3.901 4.197,4.281 4.407,4.593C4.547,4.8 4.711,4.985 4.985,4.985C5.259,4.985 5.423,4.8 5.563,4.593C5.773,4.281 5.925,3.901 6.057,3.511C6.787,1.36 7.919,0 9.97,0L9.97,3C9.707,3 9.543,3.142 9.41,3.337C9.199,3.646 9.046,4.039 8.898,4.474C8.239,6.417 7.037,7.985 4.985,7.985C2.933,7.985 1.731,6.417 1.072,4.474C0.924,4.039 0.771,3.646 0.561,3.337C0.427,3.142 0.263,3 -0,3Z" style="fill:rgb(249,87,255);"/>
</svg>
