<svg viewBox="0 0 530 404" xmlns="http://www.w3.org/2000/svg">
    <g transform="matrix(1,0,0,1,-3699,-2680.93)">
        <g transform="matrix(-0.324767,-1.35061,-1.35061,0.324767,6866.81,3202.08)">
            <path d="M731.318,2047.78C731.318,2020.33 709.026,1998.03 681.568,1998.03C654.11,1998.03 631.818,2020.33 631.818,2047.78L631.818,2119.86C631.818,2147.32 654.11,2169.61 681.568,2169.61C709.026,2169.61 731.318,2147.32 731.318,2119.86L731.318,2047.78Z" style="fill:var(--primary);"/>
        </g>
      <g transform="matrix(-0.308713,-1.28385,1.82739,-0.439413,2786.13,3781.41)">
            <path d="M388.661,708.778C386.6,709.816 384.076,710.427 381.35,710.427C374.411,710.427 368.778,706.469 368.778,701.595L368.778,652.194C368.778,651.174 369.957,650.346 371.408,650.346C372.86,650.346 374.038,651.174 374.038,652.194L374.038,701.595C374.038,704.43 377.314,706.731 381.35,706.731C385.385,706.731 388.661,704.43 388.661,701.595L388.661,670.744C388.661,669.724 389.839,668.896 391.291,668.896C392.742,668.896 393.921,669.724 393.921,670.744L393.921,709.825C393.921,712.66 397.197,714.962 401.232,714.962C405.268,714.962 408.544,712.66 408.544,709.825L408.544,675.565C408.544,674.545 409.722,673.717 411.174,673.717C412.625,673.717 413.804,674.545 413.804,675.565L413.804,709.825C413.804,714.699 408.171,718.657 401.232,718.657C394.294,718.657 388.661,714.699 388.661,709.825L388.661,708.778ZM448.31,675.565C448.277,674.773 448.977,674.025 450.1,673.759C451.476,673.434 452.969,673.954 453.432,674.921L463.833,696.623C465.12,699.309 469.27,700.756 473.095,699.852C476.919,698.947 478.979,696.031 477.691,693.344L464.471,665.759C464.008,664.793 464.748,663.744 466.124,663.419C467.5,663.093 468.993,663.614 469.456,664.58L482.676,692.165C484.89,696.785 481.349,701.798 474.773,703.354C468.198,704.909 461.062,702.421 458.848,697.802L453.569,686.788L453.569,709.825C453.569,714.699 447.936,718.657 440.998,718.657C434.06,718.657 428.427,714.699 428.427,709.825L428.427,675.565C428.427,674.545 429.605,673.717 431.057,673.717C432.508,673.717 433.687,674.545 433.687,675.565L433.687,709.825C433.687,712.66 436.963,714.962 440.998,714.962C445.033,714.962 448.309,712.66 448.309,709.825L448.31,675.565Z" style="fill:var(--on-primary);"/>
        </g>
      <g transform="matrix(-0.308713,-1.28385,1.82739,-0.439413,2796.08,3725.01)">
            <path d="M388.661,667.334C388.661,666.315 389.839,665.487 391.291,665.487C392.742,665.487 393.921,666.315 393.921,667.334L393.921,701.595C393.921,706.469 388.288,710.427 381.35,710.427C374.411,710.427 368.778,706.469 368.778,701.595L368.778,667.334C368.778,666.315 369.957,665.487 371.408,665.487C372.86,665.487 374.038,666.315 374.038,667.334L374.038,701.595C374.038,704.43 377.314,706.731 381.35,706.731C385.385,706.731 388.661,704.43 388.661,701.595L388.661,667.334Z" style="fill:var(--on-primary);"/>
        </g>
      <g transform="matrix(1.35061,-0.324767,0.324767,1.35061,2940.38,531.467)">
            <path d="M390.292,1739.5C404.216,1739.5 417.57,1745.03 427.416,1754.88C437.261,1764.72 442.792,1778.08 442.792,1792L442.792,1808.24C442.792,1808.75 442.638,1809.25 442.35,1809.66C442.35,1809.66 434.344,1821.27 434.344,1821.27L442.331,1832.53C442.631,1832.95 442.792,1833.45 442.792,1833.97L442.792,1925.95C442.792,1927.33 441.673,1928.45 440.292,1928.45L333.876,1928.45C332.495,1928.45 331.376,1927.33 331.376,1925.95L331.376,1792C331.376,1778.08 336.907,1764.72 346.753,1754.88C356.598,1745.03 369.952,1739.5 383.876,1739.5L390.292,1739.5ZM390.292,1744.5L383.876,1744.5C371.278,1744.5 359.196,1749.5 350.288,1758.41C341.38,1767.32 336.376,1779.4 336.376,1792L336.376,1923.45L437.792,1923.45L437.792,1834.77L429.254,1822.74C428.646,1821.88 428.638,1820.74 429.234,1819.87L437.792,1807.47L437.792,1792C437.792,1779.4 432.788,1767.32 423.88,1758.41C414.972,1749.5 402.89,1744.5 390.292,1744.5Z" style="fill:var(--on-primary);"/>
        </g>
      <g transform="matrix(1.67227,-0.402113,0.402113,1.67227,2663.36,-10.5185)">
            <path d="M389.002,1787.41L393.363,1787.12L393.363,1776.07L389.002,1775.78L389.002,1772.87L401.214,1772.87L401.214,1775.78L396.852,1776.07L396.852,1787.12L401.214,1787.41L401.214,1790.32L389.002,1790.32L389.002,1787.41Z" style="fill:var(--on-primary);"/>
        </g>
      <g transform="matrix(1.67227,-0.402113,0.402113,1.67227,2663.36,-10.5185)">
            <path d="M381.733,1816.48L386.094,1816.19L386.094,1805.14L381.733,1804.85L381.733,1801.95L393.945,1801.95L393.945,1804.85L389.583,1805.14L389.583,1816.19L393.945,1816.48L393.945,1819.39L381.733,1819.39L381.733,1816.48Z" style="fill:var(--on-primary);"/>
        </g>
      <g transform="matrix(1.67227,-0.402113,0.402113,1.67227,2663.36,-10.5185)">
            <path d="M396.271,1816.48L400.632,1816.19L400.632,1805.14L396.271,1804.85L396.271,1801.95L408.482,1801.95L408.482,1804.85L404.121,1805.14L404.121,1816.19L408.482,1816.48L408.482,1819.39L396.271,1819.39L396.271,1816.48Z" style="fill:var(--on-primary);"/>
        </g>
      <g transform="matrix(1.67227,-0.402113,0.402113,1.67227,2663.36,-10.5185)">
            <path d="M374.464,1845.56L378.826,1845.27L378.826,1834.22L374.464,1833.93L374.464,1831.02L386.676,1831.02L386.676,1833.93L382.315,1834.22L382.315,1845.27L386.676,1845.56L386.676,1848.47L374.464,1848.47L374.464,1845.56Z" style="fill:var(--on-primary);"/>
        </g>
      <g transform="matrix(1.67227,-0.402113,0.402113,1.67227,2663.36,-10.5185)">
            <path d="M389.002,1845.56L393.363,1845.27L393.363,1834.22L389.002,1833.93L389.002,1831.02L401.214,1831.02L401.214,1833.93L396.852,1834.22L396.852,1845.27L401.214,1845.56L401.214,1848.47L389.002,1848.47L389.002,1845.56Z" style="fill:var(--on-primary);"/>
        </g>
      <g transform="matrix(1.67227,-0.402113,0.402113,1.67227,2663.36,-10.5185)">
            <path d="M403.54,1845.56L407.901,1845.27L407.901,1834.22L403.54,1833.93L403.54,1831.02L415.751,1831.02L415.751,1833.93L411.39,1834.22L411.39,1845.27L415.751,1845.56L415.751,1848.47L403.54,1848.47L403.54,1845.56Z" style="fill:var(--on-primary);"/>
        </g>
      <g transform="matrix(1.67227,-0.402113,0.402113,1.67227,2663.36,-10.5185)">
            <path d="M381.733,1874.63L386.094,1874.34L386.094,1863.3L381.733,1863L381.733,1860.1L393.945,1860.1L393.945,1863L389.583,1863.3L389.583,1874.34L393.945,1874.63L393.945,1877.54L381.733,1877.54L381.733,1874.63Z" style="fill:var(--on-primary);"/>
        </g>
      <g transform="matrix(1.67227,-0.402113,0.402113,1.67227,2663.36,-10.5185)">
            <path d="M400.719,1877.63L395.108,1860.1L398.8,1860.1L402.377,1871.7L405.924,1860.1L409.645,1860.1L404.034,1877.63L400.719,1877.63Z" style="fill:var(--on-primary);"/>
        </g>
      <g transform="matrix(1.35061,-0.324767,0.324767,1.35061,2943.26,541.95)">
            <path d="M458.623,1757.89C457.648,1758.87 456.064,1758.87 455.088,1757.89C454.112,1756.91 454.112,1755.33 455.088,1754.35L477.428,1732.01C478.404,1731.04 479.988,1731.04 480.964,1732.01C481.939,1732.99 481.939,1734.57 480.964,1735.55L458.623,1757.89Z" style="fill:var(--on-primary);"/>
        </g>
      <g transform="matrix(1.35061,-0.324767,0.324767,1.35061,2943.26,541.95)">
            <path d="M318.019,1754.35C318.994,1755.33 318.994,1756.91 318.019,1757.89C317.043,1758.87 315.459,1758.87 314.483,1757.89L290.683,1734.09L294.218,1730.55L318.019,1754.35Z" style="fill:var(--on-primary);"/>
        </g>
      <g transform="matrix(1.35061,-0.324767,0.324767,1.35061,2943.26,541.95)">
            <path d="M455.637,1899.04C454.661,1898.07 454.661,1896.48 455.637,1895.51C456.613,1894.53 458.197,1894.53 459.172,1895.51L484.251,1920.59C485.227,1921.56 485.227,1923.15 484.251,1924.12C483.276,1925.1 481.691,1925.1 480.716,1924.12L455.637,1899.04Z" style="fill:var(--on-primary);"/>
        </g>
      <g transform="matrix(-1.35061,0.324767,0.324767,1.35061,3989.9,290.277)">
            <path d="M460.451,1896.79C459.475,1895.81 457.891,1895.81 456.915,1896.79C455.939,1897.76 455.939,1899.35 456.915,1900.32L480.716,1924.12C481.691,1925.1 483.276,1925.1 484.251,1924.12C485.227,1923.15 485.227,1921.56 484.251,1920.59L460.451,1896.79Z" style="fill:var(--on-primary);"/>
        </g>
      <g transform="matrix(1.14467,-0.275248,0.324767,1.35061,3022.87,522.808)">
            <path d="M351.437,1715.62C351.891,1716.95 350.991,1718.33 349.428,1718.72C347.864,1719.11 346.226,1718.34 345.772,1717.02L336.532,1690.08C336.078,1688.76 336.978,1687.37 338.541,1686.98C340.104,1686.6 341.743,1687.36 342.197,1688.68L351.437,1715.62Z" style="fill:var(--on-primary);"/>
        </g>
      <g transform="matrix(-1.14467,0.275248,0.324767,1.35061,3907.82,310.012)">
            <path d="M345.772,1717.02C346.226,1718.34 347.864,1719.11 349.428,1718.72C350.991,1718.33 351.891,1716.95 351.437,1715.62L342.197,1688.68C341.743,1687.36 340.104,1686.6 338.541,1686.98C336.978,1687.37 336.078,1688.76 336.532,1690.08L345.772,1717.02Z" style="fill:var(--on-primary);"/>
        </g>
      <g transform="matrix(1.14467,-0.275248,-0.324767,-1.35061,4209.01,5455.63)">
            <path d="M345.772,1717.02C346.226,1718.34 347.864,1719.11 349.428,1718.72C350.991,1718.33 351.891,1716.95 351.437,1715.62L342.197,1688.68C341.743,1687.36 340.104,1686.6 338.541,1686.98C336.978,1687.37 336.078,1688.76 336.532,1690.08L345.772,1717.02Z" style="fill:var(--on-primary);"/>
        </g>
      <g transform="matrix(-1.35061,0.324767,-0.324767,-1.35061,5173.57,5223.69)">
            <path d="M350.969,1715.51C351.417,1716.81 350.721,1718.24 349.415,1718.68C348.11,1719.13 346.687,1718.43 346.24,1717.13L337,1690.19C336.552,1688.89 337.248,1687.47 338.553,1687.02C339.859,1686.57 341.282,1687.27 341.729,1688.57L350.969,1715.51Z" style="fill:var(--on-primary);"/>
        </g>
      <g transform="matrix(-0.240704,-1.00102,-1.13367,0.272602,6221.64,2773.28)">
            <path d="M353.984,1742.28C354.524,1743.85 356.408,1744.74 358.19,1744.26C359.972,1743.79 360.98,1742.12 360.44,1740.55L342.593,1688.52C342.053,1686.95 340.168,1686.06 338.387,1686.53C336.605,1687.01 335.597,1688.67 336.136,1690.25L353.984,1742.28Z" style="fill:var(--on-primary);"/>
        </g>
      <g transform="matrix(0.240704,1.00102,-1.13367,0.272602,6035.55,1999.39)">
            <path d="M360.44,1740.55C360.98,1742.12 359.972,1743.79 358.19,1744.26C356.408,1744.74 354.524,1743.85 353.984,1742.28L336.136,1690.25C335.597,1688.67 336.605,1687.01 338.387,1686.53C340.168,1686.06 342.053,1686.95 342.593,1688.52L360.44,1740.55Z" style="fill:var(--on-primary);"/>
        </g>
    </g>
</svg>
