<svg viewBox="0 0 538 410" xmlns="http://www.w3.org/2000/svg">
    <g transform="matrix(1,0,0,1,-6037.55,-316.804)">
        <g transform="matrix(0.548,-0.469795,0.419924,0.489827,4889.73,-215.217)">
            <rect x="662.757" y="1945.95" width="140.027" height="79.988" style="fill:var(--primary);"/>
        </g>
      <g transform="matrix(0.384751,-0.610719,0.610719,0.384751,4626.3,90.2257)">
            <path d="M739.78,2062.94C737.427,2063.24 733.763,2065.01 729.215,2067.36C715.714,2074.33 695.988,2087.1 680.817,2094.75C673.821,2098.27 667.696,2100.7 663.412,2101.28C660.752,2101.64 658.591,2101.31 656.999,2100.53C653.987,2099.05 650.008,2094.21 646.131,2087.04C638.201,2072.39 629.403,2047.71 625.394,2029.59C623.582,2021.41 622.779,2014.49 623.284,2010.22C623.624,2007.36 624.616,2005.35 625.814,2004.18C654.346,1976.28 716.445,1950.44 740.452,1950.44C764.458,1950.44 826.557,1976.28 855.089,2004.18C856.287,2005.35 857.279,2007.36 857.619,2010.22C858.124,2014.49 857.321,2021.41 855.51,2029.59C851.5,2047.71 842.702,2072.39 834.772,2087.04C830.895,2094.21 826.916,2099.05 823.904,2100.53C822.313,2101.31 820.151,2101.64 817.491,2101.28C813.208,2100.7 807.082,2098.27 800.086,2094.75C784.915,2087.1 765.19,2074.33 751.688,2067.36C747.14,2065.01 743.477,2063.24 741.123,2062.94C740.905,2062.98 740.681,2063 740.452,2063C740.223,2063 739.998,2062.98 739.78,2062.94ZM744.451,2055.6C747.374,2056.46 751.111,2058.06 755.359,2060.25C768.841,2067.22 788.537,2079.97 803.686,2087.6C808.912,2090.24 813.548,2092.25 817.121,2093.08C818.522,2093.41 819.631,2093.72 820.381,2093.35C821.039,2093.03 821.697,2092.33 822.456,2091.43C824.113,2089.47 825.891,2086.65 827.737,2083.24C835.379,2069.11 843.836,2045.32 847.7,2027.86C849.061,2021.72 849.861,2016.39 849.773,2012.63C849.746,2011.48 849.417,2010.03 849.354,2009.76C822.118,1983.24 763.275,1958.44 740.452,1958.44C717.629,1958.44 658.786,1983.24 631.549,2009.76C631.486,2010.03 631.158,2011.48 631.131,2012.63C631.043,2016.39 631.842,2021.72 633.203,2027.86C637.068,2045.32 645.524,2069.11 653.166,2083.24C655.012,2086.65 656.79,2089.47 658.447,2091.43C659.206,2092.33 659.865,2093.03 660.522,2093.35C661.272,2093.72 662.381,2093.41 663.782,2093.08C667.355,2092.25 671.991,2090.24 677.217,2087.6C692.367,2079.97 712.062,2067.22 725.544,2060.25C729.792,2058.06 733.529,2056.46 736.452,2055.6L736.452,1986.22C704.932,1988.8 649.001,2019.55 649.001,2019.55C647.063,2020.61 644.632,2019.9 643.574,2017.96C642.515,2016.02 643.229,2013.59 645.166,2012.53C645.166,2012.53 708.712,1978.05 740.452,1978.05C772.191,1978.05 835.737,2012.53 835.737,2012.53C837.674,2013.59 838.388,2016.02 837.33,2017.96C836.272,2019.9 833.84,2020.61 831.903,2019.55C831.903,2019.55 775.971,1988.8 744.451,1986.22L744.451,2055.6Z" style="fill:var(--on-primary);"/>
        </g>
      <g transform="matrix(-0.828183,0.804671,-0.804671,-0.828183,10336.8,1339.84)">
            <path d="M1902.27,2867.33C1874.82,2867.33 1852.52,2845.04 1852.52,2817.58C1852.52,2790.12 1874.82,2767.83 1902.27,2767.83C2003.6,2767.83 2085.87,2850.09 2085.87,2951.42C2085.87,2978.88 2063.57,3001.17 2036.12,3001.17C2008.66,3001.17 1986.37,2978.88 1986.37,2951.42C1986.37,2905.01 1948.69,2867.33 1902.27,2867.33Z" style="fill:var(--primary);"/>
        </g>
      <g transform="matrix(0.787246,-0.764895,-1.08873,-1.12054,6670.58,1603.81)">
            <path d="M388.661,701.595C388.661,704.43 385.385,706.731 381.35,706.731C377.314,706.731 374.038,704.43 374.038,701.595L374.038,667.334C374.038,666.315 372.86,665.487 371.408,665.487C369.957,665.487 368.778,666.315 368.778,667.334L368.778,701.595C368.778,706.469 374.411,710.427 381.35,710.427C384.076,710.427 386.6,709.816 388.661,708.778L388.661,713.97C388.661,718.844 394.294,722.802 401.232,722.802C404.269,722.802 407.055,722.044 409.229,720.783C410.93,724.245 415.612,726.735 421.115,726.735C423.841,726.735 426.366,726.124 428.427,725.086L428.427,728.634C428.427,733.509 434.06,737.467 440.998,737.467C447.936,737.467 453.569,733.509 453.569,728.634L453.569,713.725C455.63,714.762 458.155,715.373 460.881,715.373C467.819,715.373 473.452,711.416 473.452,706.541L473.452,669.325C473.452,668.305 472.274,667.477 470.822,667.477C469.371,667.477 468.192,668.305 468.192,669.325L468.192,706.541C468.192,709.376 464.916,711.678 460.881,711.678C456.846,711.678 453.569,709.376 453.569,706.541L453.569,683.642C453.569,682.622 452.391,681.795 450.939,681.795C449.488,681.795 448.309,682.622 448.309,683.642L448.309,728.634C448.309,731.469 445.033,733.771 440.998,733.771C436.963,733.771 433.687,731.469 433.687,728.634L433.687,683.642C433.687,682.622 432.508,681.795 431.057,681.795C429.605,681.795 428.427,682.622 428.427,683.642L428.427,717.902C428.427,720.737 425.15,723.039 421.115,723.039C417.08,723.039 413.804,720.737 413.804,717.902L413.804,679.71C413.804,678.69 412.625,677.862 411.174,677.862C409.722,677.862 408.544,678.69 408.544,679.71L408.544,713.97C408.544,716.805 405.268,719.107 401.232,719.107C397.197,719.107 393.921,716.805 393.921,713.97L393.921,675.003C393.921,673.983 392.742,673.155 391.291,673.155C389.839,673.155 388.661,673.983 388.661,675.003L388.661,701.595Z" style="fill:var(--on-primary);"/>
        </g>
      <g transform="matrix(1.15472,0,0,1.15472,5078.18,-2392.27)">
            <path d="M836.156,2429.61L831.554,2425.01C830.578,2424.03 830.578,2422.45 831.554,2421.47C832.53,2420.5 834.114,2420.5 835.09,2421.47L839.692,2426.08L844.294,2421.47C845.27,2420.5 846.854,2420.5 847.829,2421.47C848.805,2422.45 848.805,2424.03 847.829,2425.01L843.227,2429.61L847.829,2434.21C848.805,2435.19 848.805,2436.77 847.829,2437.75C846.854,2438.72 845.27,2438.72 844.294,2437.75L839.692,2433.15L835.09,2437.75C834.114,2438.72 832.53,2438.72 831.554,2437.75C830.578,2436.77 830.578,2435.19 831.554,2434.21L836.156,2429.61Z" style="fill:var(--on-primary);"/>
        </g>
      <g transform="matrix(0.669226,0,0,0.669226,5509.48,-1236.34)">
            <path d="M833.591,2429.61L830.272,2426.29C828.588,2424.61 828.588,2421.88 830.272,2420.19C831.955,2418.51 834.689,2418.51 836.372,2420.19L839.692,2423.51L843.011,2420.19C844.695,2418.51 847.428,2418.51 849.112,2420.19C850.795,2421.88 850.795,2424.61 849.112,2426.29L845.792,2429.61L849.112,2432.93C850.795,2434.62 850.795,2437.35 849.112,2439.03C847.428,2440.72 844.695,2440.72 843.011,2439.03L839.692,2435.71L836.372,2439.03C834.689,2440.72 831.955,2440.72 830.272,2439.03C828.588,2437.35 828.588,2434.62 830.272,2432.93L833.591,2429.61Z" style="fill:var(--on-primary);"/>
        </g>
    </g>
</svg>
