<svg viewBox="0 0 645 576" xmlns="http://www.w3.org/2000/svg"
     style="fill-rule:evenodd;clip-rule:evenodd;stroke-linejoin:round;stroke-miterlimit:2;">
  <g transform="matrix(1,0,0,1,-2645.78,-246.546)">
    <g transform="matrix(5.60349,0,0,5.60349,2300.99,-42.3899)">
      <path
        d="M130.754,61.967C137.834,62.011 143.569,67.774 143.569,74.865C143.569,81.984 137.789,87.763 130.67,87.763L91.975,87.763L91.975,126.458C91.975,133.577 86.196,139.357 79.077,139.357C71.958,139.357 66.178,133.577 66.178,126.458L66.178,74.865C66.178,67.746 71.958,61.966 79.077,61.966L130.67,61.966L130.754,61.967ZM147.349,91.543C149.683,89.208 152.908,87.763 156.467,87.763C163.586,87.763 169.366,93.543 169.366,100.662C169.366,104.221 167.921,107.446 165.586,109.78L165.588,109.782L139.791,135.579L139.789,135.577C137.454,137.912 134.23,139.357 130.67,139.357C127.111,139.357 123.886,137.912 121.552,135.577L121.55,135.579L95.753,109.782L95.755,109.78C93.42,107.446 91.975,104.221 91.975,100.662C91.975,93.543 97.755,87.763 104.874,87.763C108.433,87.763 111.658,89.208 113.992,91.543L113.994,91.541L130.67,108.217L147.347,91.541L147.349,91.543Z"
        style="fill:var(--primary);"/>
    </g>
    <g transform="matrix(1.45347,0,-0.152766,1.45347,2321.32,-244.245)">
      <circle cx="484.387" cy="674.041" r="8.85" style="fill:var(--on-primary);"/>
    </g>
    <g transform="matrix(1.34547,0.54981,-0.54981,1.34547,2302.65,-343.663)">
      <path
        d="M459.521,409.116C458.141,409.116 457.021,407.996 457.021,406.616C457.021,405.236 458.141,404.116 459.521,404.116L480.325,404.116C481.705,404.116 482.825,405.236 482.825,406.616C482.825,407.996 481.705,409.116 480.325,409.116L459.521,409.116Z"
        style="fill:var(--on-primary);"/>
    </g>
    <g transform="matrix(0.124565,0.0509022,-0.0509022,0.124565,2668.3,188.917)">
      <path
        d="M596.407,433.977C596.407,315.207 692.689,218.927 811.453,218.927L1315.05,218.927C1433.81,218.927 1530.09,315.207 1530.09,433.977L1530.09,1686.93C1530.09,1805.69 1433.81,1901.97 1315.05,1901.97L811.453,1901.97C692.689,1901.97 596.407,1805.69 596.407,1686.93L596.407,433.977ZM650.413,433.977L650.413,1686.93C650.413,1775.87 722.515,1847.97 811.453,1847.97L1315.05,1847.97C1403.99,1847.97 1476.09,1775.87 1476.09,1686.93L1476.09,433.977C1476.09,345.035 1403.99,272.933 1315.05,272.933L811.453,272.933C722.515,272.933 650.413,345.035 650.413,433.977Z"
        style="fill:var(--on-primary);"/>
    </g>
    <g transform="matrix(1.34547,0.54981,-0.54981,1.34547,2373.47,-516.984)">
      <path
        d="M459.521,409.116C458.141,409.116 457.021,407.996 457.021,406.616C457.021,405.236 458.141,404.116 459.521,404.116L480.325,404.116C481.705,404.116 482.825,405.236 482.825,406.616C482.825,407.996 481.705,409.116 480.325,409.116L459.521,409.116Z"
        style="fill:var(--on-primary);"/>
    </g>
    <g transform="matrix(0.976957,-0.976957,-1.39057,-1.39057,3409.33,1865.6)">
      <path
        d="M388.661,701.595C388.661,704.43 385.385,706.731 381.35,706.731C377.314,706.731 374.038,704.43 374.038,701.595L374.038,667.334C374.038,666.315 372.86,665.487 371.408,665.487C369.957,665.487 368.778,666.315 368.778,667.334L368.778,701.595C368.778,706.469 374.411,710.427 381.35,710.427C384.076,710.427 386.6,709.816 388.661,708.778L388.661,713.97C388.661,718.844 394.294,722.802 401.232,722.802C404.269,722.802 407.055,722.044 409.229,720.783C410.93,724.245 415.612,726.735 421.115,726.735C423.841,726.735 426.366,726.124 428.427,725.086L428.427,728.634C428.427,733.509 434.06,737.467 440.998,737.467C447.936,737.467 453.569,733.509 453.569,728.634L453.569,713.725C455.63,714.762 458.155,715.373 460.881,715.373C467.819,715.373 473.452,711.416 473.452,706.541L473.452,672.281C473.452,671.261 472.274,670.433 470.822,670.433C469.371,670.433 468.192,671.261 468.192,672.281L468.192,706.541C468.192,709.376 464.916,711.678 460.881,711.678C456.846,711.678 453.569,709.376 453.569,706.541L453.569,683.642C453.569,682.622 452.391,681.795 450.939,681.795C449.488,681.795 448.309,682.622 448.309,683.642L448.309,728.634C448.309,731.469 445.033,733.771 440.998,733.771C436.963,733.771 433.687,731.469 433.687,728.634L433.687,683.642C433.687,682.622 432.508,681.795 431.057,681.795C429.605,681.795 428.427,682.622 428.427,683.642L428.427,717.902C428.427,720.737 425.15,723.039 421.115,723.039C417.08,723.039 413.804,720.737 413.804,717.902L413.804,679.71C413.804,678.69 412.625,677.862 411.174,677.862C409.722,677.862 408.544,678.69 408.544,679.71L408.544,713.97C408.544,716.805 405.268,719.107 401.232,719.107C397.197,719.107 393.921,716.805 393.921,713.97L393.921,675.003C393.921,673.983 392.742,673.155 391.291,673.155C389.839,673.155 388.661,673.983 388.661,675.003L388.661,701.595Z"
        style="fill:var(--on-primary);"/>
    </g>
    <g transform="matrix(1.38163,0,0,1.96656,2162.29,-667.591)">
      <path
        d="M388.661,708.778C386.6,709.816 384.076,710.427 381.35,710.427C374.411,710.427 368.778,706.469 368.778,701.595L368.778,667.334C368.778,666.315 369.957,665.487 371.408,665.487C372.86,665.487 374.038,666.315 374.038,667.334L374.038,701.595C374.038,704.43 377.314,706.731 381.35,706.731C385.385,706.731 388.661,704.43 388.661,701.595L388.661,675.003C388.661,673.983 389.839,673.155 391.291,673.155C392.742,673.155 393.921,673.983 393.921,675.003L393.921,713.97C393.921,716.805 397.197,719.107 401.232,719.107C405.268,719.107 408.544,716.805 408.544,713.97L408.544,679.71C408.544,678.69 409.722,677.862 411.174,677.862C412.625,677.862 413.804,678.69 413.804,679.71L413.804,717.902C413.804,720.737 417.08,723.039 421.115,723.039C425.15,723.039 428.427,720.737 428.427,717.902L428.427,683.642C428.427,682.622 429.605,681.795 431.057,681.795C432.508,681.795 433.687,682.622 433.687,683.642L433.687,728.634C433.687,731.469 436.963,733.771 440.998,733.771C445.033,733.771 448.309,731.469 448.309,728.634L448.309,683.642C448.309,682.622 449.488,681.795 450.939,681.795C452.391,681.795 453.569,682.622 453.569,683.642L453.569,706.541C453.569,709.376 456.846,711.678 460.881,711.678C464.916,711.678 468.192,709.376 468.192,706.541L468.192,672.281C468.192,671.261 469.371,670.433 470.822,670.433C472.274,670.433 473.452,671.261 473.452,672.281L473.452,706.541C473.452,711.416 467.819,715.373 460.881,715.373C458.155,715.373 455.63,714.762 453.569,713.725L453.569,728.634C453.569,733.509 447.936,737.467 440.998,737.467C434.06,737.467 428.427,733.509 428.427,728.634L428.427,725.086C426.366,726.124 423.841,726.735 421.115,726.735C415.612,726.735 410.93,724.245 409.229,720.783C407.055,722.044 404.269,722.802 401.232,722.802C394.294,722.802 388.661,718.844 388.661,713.97L388.661,708.778Z"
        style="fill:var(--on-primary);"/>
    </g>
    <g transform="matrix(0.0775503,0,0,0.0775503,2287.62,281.318)">
      <path
        d="M9243.41,4765.16C9331.9,4765.16 9415.57,4805.5 9470.69,4874.74C9525.8,4943.97 9546.36,5034.56 9526.51,5120.8L9158.26,6721.48C9127.92,6853.39 9010.5,6946.86 8875.15,6946.86L7127.09,6946.86C7038.6,6946.86 6954.93,6906.52 6899.81,6837.28C6844.69,6768.05 6824.14,6677.46 6843.98,6591.22L7212.24,4990.53C7242.58,4858.63 7360,4765.16 7495.34,4765.16L9243.41,4765.16ZM9243.41,4858.87L7495.34,4858.87C7403.66,4858.87 7324.12,4922.19 7303.56,5011.55L6935.31,6612.23C6921.87,6670.65 6935.79,6732.01 6973.13,6778.92C7010.46,6825.82 7067.14,6853.14 7127.09,6853.14L8875.15,6853.14C8966.84,6853.14 9046.38,6789.83 9066.94,6700.47L9435.19,5099.79C9448.63,5041.37 9434.71,4980 9397.37,4933.1C9360.03,4886.2 9303.35,4858.87 9243.41,4858.87Z"
        style="fill:var(--on-primary);"/>
    </g>
    <g transform="matrix(0.0902658,0,0,0.0775503,2219.48,281.396)">
      <path
        d="M6846.59,6943.54C6839.14,6945.06 6831.47,6945.86 6823.65,6945.86L5451.39,6945.86C5378.2,6945.86 5318.78,6876.69 5318.78,6791.51C5318.78,6706.32 5378.2,6637.16 5451.39,6637.16L6628.94,6637.16C6629.78,6621.47 6631.73,6605.78 6634.8,6590.22L6951.18,4989.53C6977.25,4857.63 7078.13,4764.16 7194.41,4764.16L8696.23,4764.16C8772.26,4764.16 8844.14,4804.5 8891.49,4873.74C8938.84,4942.97 8956.5,5033.56 8939.45,5119.8L8623.08,6720.48C8597.01,6852.39 8496.13,6945.86 8379.85,6945.86L6878.03,6945.86C6867.45,6945.86 6856.95,6945.07 6846.59,6943.54ZM6637.03,6730.88L5451.39,6730.88C5422.64,6730.88 5399.29,6758.04 5399.29,6791.51C5399.29,6824.98 5422.64,6852.14 5451.39,6852.14L6694.44,6852.14C6690.4,6847.04 6686.51,6841.75 6682.77,6836.28C6661.21,6804.76 6645.81,6768.82 6637.03,6730.88ZM6851.63,6849.73C6860.3,6851.33 6869.12,6852.14 6878.03,6852.14L8379.85,6852.14C8458.62,6852.14 8526.95,6788.83 8544.62,6699.47L8860.99,5098.79C8872.54,5040.37 8860.58,4979 8828.5,4932.1C8796.43,4885.2 8747.73,4857.87 8696.23,4857.87L7194.41,4857.87C7115.64,4857.87 7047.3,4921.19 7029.64,5010.55L6713.26,6611.23C6708.85,6633.55 6707.87,6656.3 6710.13,6678.5C6713.79,6714.43 6725.93,6748.93 6745.76,6777.92C6772.28,6816.71 6810.18,6842.11 6851.63,6849.73Z"
        style="fill:var(--on-primary);"/>
    </g>
    <g transform="matrix(0.111407,0.0358931,-0.0358931,0.111407,3117.72,549.577)">
      <path
        d="M1002.48,1305.71C954.537,1305.2 910.649,1302.26 870.624,1297.41L636.635,1898.69L632.909,1905.99L627.908,1912.28L615.118,1921.15L599.936,1924.57L591.927,1924.01L584.038,1921.82L571.151,1913.76L562.414,1902.08L558.371,1888.22L559.533,1873.38L559.567,1873.25L724.941,1267.46C640.161,1241.42 583.474,1205.58 550.272,1171.99C519.825,1141.19 507.713,1110.37 507.713,1087.21C507.713,1066.15 513.77,1050.13 523.637,1037.46C536.552,1020.89 557.402,1009.74 585.191,1003.47C623.533,994.825 678.192,994.925 735.112,984.606C785.454,975.48 838.092,957.666 879.956,912.809C899.914,891.428 915.79,842.6 934.476,781.71C965.596,680.298 1000.09,547.197 1052.08,435.127C1114.77,299.969 1204.2,196.709 1335.65,196.709C1367.46,196.709 1418.85,196.862 1469.33,229.278C1539.81,274.535 1613.61,387.46 1613.61,678.176C1613.61,946.083 1537.44,1109.8 1409.32,1202.92L1594.54,1873.17L1595.91,1881.24L1595.66,1889.26L1590.73,1904.01L1580.61,1915.84L1573.85,1920.18L1566.2,1923.15L1566.18,1923.16L1550.97,1924.38L1536.94,1920.18L1525.41,1911.41L1517.5,1898.73L1517.45,1898.6C1517.45,1898.6 1275.17,1270.21 1275.17,1270.21C1234.26,1283.6 1190.15,1292.93 1143.14,1298.67L1113.21,1886.01L1113.21,1886.07L1111.96,1894.15L1109.19,1901.67L1099.86,1914.1L1086.53,1922.13L1078.75,1924.12L1070.57,1924.52L1055.77,1920.91L1043.79,1912.55L1035.6,1900.64L1032.05,1886.16L1032.05,1886.01L1002.48,1305.71ZM727.378,1494.3L821.61,1252.15C826.856,1238.67 840.717,1230.6 855.03,1232.69C902.83,1239.68 956.874,1243.7 1017.57,1243.7C1022.27,1243.7 1026.95,1243.68 1031.61,1243.62C1048.29,1243.42 1062.14,1256.43 1062.99,1273.09C1062.99,1273.09 1067.26,1356.88 1072.63,1462.34L1082.48,1269.03C1083.27,1253.6 1095.28,1241.1 1110.66,1239.69C1173.3,1233.97 1230.69,1221.91 1281.92,1201.86C1289.61,1198.85 1298.19,1199.02 1305.75,1202.35C1313.31,1205.68 1319.23,1211.89 1322.2,1219.6C1322.2,1219.6 1366.83,1335.33 1418.6,1469.61L1343.58,1198.15C1339.98,1185.1 1345.25,1171.21 1356.6,1163.84C1481.99,1082.44 1551.52,930.597 1551.52,678.176C1551.52,423.418 1497.54,321.182 1435.78,281.523C1398.11,257.333 1359.39,258.799 1335.65,258.799C1227.67,258.799 1159.9,350.221 1108.4,461.253C1048.93,589.458 1013.19,745.863 978.36,848.093C961.479,897.638 943.776,935.431 925.347,955.175C838.981,1047.71 716.554,1049.53 631.668,1058.96C613.548,1060.98 597.562,1063.29 584.97,1068.06C575.975,1071.47 569.803,1076.63 569.803,1087.21C569.803,1098.92 579.044,1112.78 594.431,1128.34C626.134,1160.42 683.613,1193.34 770.774,1215.91C778.813,1217.99 785.683,1223.2 789.848,1230.39C794.013,1237.57 795.127,1246.12 792.94,1254.14C792.94,1254.14 762.645,1365.11 727.378,1494.3Z"
        style="fill:var(--on-primary);"/>
    </g>
    <g transform="matrix(1.02664,0,0,1.02664,2330.14,-105.719)">
      <path
        d="M877.095,426.225C877.095,424.272 878.681,422.686 880.634,422.686C882.588,422.686 884.173,424.272 884.173,426.225C884.173,438.306 874.366,448.114 862.285,448.114C850.205,448.114 840.397,438.306 840.397,426.225C840.397,424.272 841.983,422.686 843.937,422.686C845.89,422.686 847.476,424.272 847.476,426.225C847.476,434.399 854.112,441.035 862.285,441.035C870.459,441.035 877.095,434.399 877.095,426.225Z"
        style="fill:var(--on-primary);"/>
    </g>
    <g transform="matrix(1.45347,0,0,1.45347,2117.53,-284.199)">
      <path
        d="M760.725,379.701C782.12,379.701 799.49,397.071 799.49,418.465C799.49,439.86 782.12,457.23 760.725,457.23C739.33,457.23 721.961,439.86 721.961,418.465C721.961,397.071 739.33,379.701 760.725,379.701ZM760.725,384.701C742.09,384.701 726.961,399.83 726.961,418.465C726.961,437.1 742.09,452.23 760.725,452.23C779.36,452.23 794.49,437.1 794.49,418.465C794.49,399.83 779.36,384.701 760.725,384.701Z"
        style="fill:var(--on-primary);"/>
    </g>
  </g>
</svg>
