<svg viewBox="0 0 421 430" xmlns="http://www.w3.org/2000/svg">
  <g transform="matrix(1,0,0,1,-4572.27,-1417.22)">
    <g transform="matrix(1.59406,0,0,1.06761,4112.23,-974.458)">
      <path
        d="M302.145,2478.43C299.565,2475.61 297.89,2471.06 297.89,2465.94L297.89,2380.54C297.89,2371.98 302.566,2365.04 308.324,2365.04L383.127,2365.04C388.885,2365.04 393.561,2371.98 393.561,2380.54L393.561,2465.94C393.561,2471.06 391.886,2475.61 389.306,2478.43C391.745,2479.3 393.561,2482.56 393.561,2486.44C393.561,2490.99 391.077,2494.68 388.017,2494.68L303.434,2494.68C300.374,2494.68 297.89,2490.99 297.89,2486.44C297.89,2482.56 299.706,2479.3 302.145,2478.43ZM390.195,2380.54C390.195,2374.74 387.028,2370.04 383.127,2370.04L308.324,2370.04C304.423,2370.04 301.256,2374.74 301.256,2380.54L301.256,2465.94C301.256,2471.74 304.423,2476.44 308.324,2476.44L383.127,2476.44C387.028,2476.44 390.195,2471.74 390.195,2465.94L390.195,2380.54ZM390.195,2486.44C390.195,2484.66 389.219,2483.21 388.017,2483.21L303.434,2483.21C302.232,2483.21 301.256,2484.66 301.256,2486.44C301.256,2488.23 302.232,2489.68 303.434,2489.68L388.017,2489.68C389.219,2489.68 390.195,2488.23 390.195,2486.44Z"
        style="fill:var(--on-primary);"/>
    </g>
    <g transform="matrix(0.202391,0,0,0.201356,4637.43,1586.84)">
      <path
        d="M237.02,102.714C235.909,98.041 232.756,94.106 228.438,92.003L213.933,84.831L208.356,75.17L209.397,59.021C209.734,54.231 207.903,49.533 204.412,46.234C192.007,34.476 176.999,25.812 160.614,20.948C156.012,19.574 151.027,20.337 147.046,23.024L133.583,32L122.427,32L108.964,23.025C104.984,20.335 99.999,19.572 95.396,20.947C79.011,25.811 64.004,34.475 51.599,46.233C48.107,49.531 46.275,54.23 46.613,59.021L47.654,75.169L42.076,84.83L27.571,92.002C23.253,94.105 20.1,98.04 18.989,102.713C15.009,119.335 15.009,136.665 18.989,153.287C20.1,157.96 23.253,161.895 27.571,163.998L42.076,171.17L47.653,180.831L46.612,196.979C46.274,201.77 48.106,206.468 51.597,209.767C64.002,221.525 79.009,230.189 95.395,235.053C99.997,236.429 104.982,235.666 108.962,232.977L122.426,224.001L133.582,224.001L147.045,232.976C149.705,234.763 152.837,235.722 156.042,235.729C157.59,235.73 159.131,235.502 160.613,235.054C176.998,230.19 192.005,221.526 204.41,209.768C207.902,206.47 209.734,201.771 209.395,196.979L208.354,180.832L213.933,171.171L228.437,163.999C232.756,161.896 235.909,157.961 237.019,153.288C241,136.666 241,119.336 237.019,102.714L237.02,102.714ZM176.005,128C176.005,154.333 154.337,176 128.005,176C101.673,176 80.005,154.333 80.005,128C80.005,101.668 101.673,80 128.005,80C154.326,80.03 175.975,101.68 176.005,128Z"
        style="fill:var(--on-primary);"/>
    </g>
    <g transform="matrix(0.202391,0,0,0.201356,4880.84,1586.84)">
      <path
        d="M97.564,235.54C96.835,235.429 96.11,235.267 95.395,235.053C79.009,230.189 64.002,221.525 51.597,209.767C48.106,206.468 46.274,201.77 46.612,196.979L47.653,180.831L42.076,171.17L27.571,163.998C23.253,161.895 20.1,157.96 18.989,153.287C15.009,136.665 15.009,119.335 18.989,102.713C20.1,98.04 23.253,94.105 27.571,92.002L42.076,84.83L47.654,75.169L46.613,59.021C46.275,54.23 48.107,49.531 51.599,46.233C64.004,34.475 79.011,25.811 95.396,20.947C99.999,19.572 104.984,20.335 108.964,23.025L122.427,32L133.583,32L147.046,23.024C151.027,20.337 156.012,19.574 160.614,20.948C176.999,25.812 192.007,34.476 204.412,46.234C207.903,49.533 209.734,54.231 209.396,59.021L208.355,75.17L213.933,84.831L228.438,92.003C232.756,94.106 235.909,98.041 237.02,102.714C241,119.336 241,136.666 237.019,153.288C235.909,157.961 232.756,161.896 228.437,163.999L213.933,171.171L208.354,180.832L209.395,196.979C209.734,201.771 207.902,206.47 204.41,209.768C192.005,221.526 176.998,230.19 160.613,235.054C159.902,235.269 159.177,235.433 158.445,235.546L158.445,488.551C174.175,498.612 184.611,516.233 184.611,536.273C184.611,567.515 159.246,592.88 128.004,592.88C96.762,592.88 71.398,567.515 71.398,536.273C71.398,516.233 81.834,498.612 97.564,488.551L97.564,235.54ZM158.445,164.997C169.141,156.164 176.005,142.821 176.005,128C175.975,101.68 154.326,80.03 128.005,80C101.673,80 80.005,101.668 80.005,128C80.005,142.82 86.868,156.163 97.564,164.997L97.564,131.933C97.564,115.133 111.204,101.492 128.004,101.492C144.805,101.492 158.445,115.133 158.445,131.933L158.445,164.997Z"
        style="fill:var(--on-primary);"/>
    </g>
    <g transform="matrix(8.98252,0,0,8.93658,4692.87,1381.48)">
      <path
        d="M5.5,16C3.567,16 2,14.433 2,12.5C2,10.692 3.371,9.204 5.131,9.019C5.046,8.694 5,8.352 5,8C5,5.791 6.791,4 9,4C10.879,4 12.455,5.295 12.884,7.042C13.086,7.014 13.291,7 13.5,7C15.985,7 18,9.015 18,11.5C18,13.985 15.985,16 13.5,16L5.5,16Z"
        style="fill:var(--primary);"/>
    </g>
    <g transform="matrix(0.15706,0,0,0.156256,4762.59,1471.78)">
      <path
        d="M237.02,102.714C235.909,98.041 232.756,94.106 228.438,92.003L213.933,84.831L208.356,75.17L209.397,59.021C209.734,54.231 207.903,49.533 204.412,46.234C192.007,34.476 176.999,25.812 160.614,20.948C156.012,19.574 151.027,20.337 147.046,23.024L133.583,32L122.427,32L108.964,23.025C104.984,20.335 99.999,19.572 95.396,20.947C79.011,25.811 64.004,34.475 51.599,46.233C48.107,49.531 46.275,54.23 46.613,59.021L47.654,75.169L42.076,84.83L27.571,92.002C23.253,94.105 20.1,98.04 18.989,102.713C15.009,119.335 15.009,136.665 18.989,153.287C20.1,157.96 23.253,161.895 27.571,163.998L42.076,171.17L47.653,180.831L46.612,196.979C46.274,201.77 48.106,206.468 51.597,209.767C64.002,221.525 79.009,230.189 95.395,235.053C99.997,236.429 104.982,235.666 108.962,232.977L122.426,224.001L133.582,224.001L147.045,232.976C149.705,234.763 152.837,235.722 156.042,235.729C157.59,235.73 159.131,235.502 160.613,235.054C176.998,230.19 192.005,221.526 204.41,209.768C207.902,206.47 209.734,201.771 209.395,196.979L208.354,180.832L213.933,171.171L228.437,163.999C232.756,161.896 235.909,157.961 237.019,153.288C241,136.666 241,119.336 237.019,102.714L237.02,102.714ZM176.005,128C176.005,154.333 154.337,176 128.005,176C101.673,176 80.005,154.333 80.005,128C80.005,101.668 101.673,80 128.005,80C154.326,80.03 175.975,101.68 176.005,128Z"
        style="fill:var(--on-primary);"/>
    </g>
    <g transform="matrix(0.742765,-0.738966,0.742765,0.738966,2315.51,90.9777)">
      <path
        d="M550.323,2566.07C550.392,2566.07 550.46,2566.07 550.529,2566.08C550.529,2566.08 714.345,2579.32 714.332,2579.32C730.624,2579.37 743.834,2592.61 743.834,2608.91C743.834,2625.21 730.63,2638.45 714.345,2638.51L550.529,2651.75C550.46,2651.76 550.392,2651.76 550.323,2651.76C526.675,2651.76 507.477,2632.56 507.477,2608.91C507.477,2585.27 526.675,2566.07 550.323,2566.07ZM550.221,2571.18C529.44,2571.23 512.585,2588.12 512.585,2608.91C512.585,2629.71 529.44,2646.6 550.222,2646.65L714.033,2633.41C714.102,2633.4 714.17,2633.4 714.239,2633.4C727.754,2633.4 738.726,2622.43 738.726,2608.91C738.726,2595.4 727.754,2584.43 714.239,2584.43C714.17,2584.43 714.102,2584.42 714.033,2584.42L550.221,2571.18Z"
        style="fill:var(--on-primary);"/>
    </g>
    <g transform="matrix(-0.742765,-0.738966,-0.742765,0.738966,7253.24,90.9777)">
      <path
        d="M547.523,2566.16C546.116,2566.25 545.048,2567.47 545.139,2568.87C545.23,2570.28 546.446,2571.35 547.852,2571.26C548.636,2571.2 549.426,2571.18 550.222,2571.18L552.849,2571.39C554.254,2571.5 555.487,2570.45 555.6,2569.05C555.714,2567.64 554.666,2566.41 553.261,2566.3L550.529,2566.08C550.46,2566.07 550.392,2566.07 550.323,2566.07C549.382,2566.07 548.448,2566.1 547.523,2566.16ZM564.188,2567.18C562.783,2567.07 561.55,2568.12 561.437,2569.52C561.323,2570.93 562.372,2572.16 563.777,2572.27L569.241,2572.71C570.646,2572.83 571.878,2571.78 571.992,2570.37C572.106,2568.97 571.057,2567.74 569.652,2567.62L564.188,2567.18ZM580.58,2568.51C579.175,2568.39 577.942,2569.44 577.828,2570.85C577.715,2572.25 578.763,2573.48 580.168,2573.6L585.632,2574.04C587.037,2574.15 588.27,2573.1 588.383,2571.7C588.497,2570.29 587.449,2569.06 586.044,2568.95L580.58,2568.51ZM596.972,2569.83C595.567,2569.72 594.334,2570.76 594.22,2572.17C594.107,2573.58 595.155,2574.81 596.56,2574.92L602.024,2575.36C603.429,2575.48 604.662,2574.43 604.775,2573.02C604.889,2571.62 603.84,2570.39 602.435,2570.27L596.972,2569.83ZM613.363,2571.16C611.958,2571.04 610.725,2572.09 610.612,2573.49C610.498,2574.9 611.546,2576.13 612.951,2576.25L618.415,2576.69C619.82,2576.8 621.053,2575.75 621.167,2574.35C621.28,2572.94 620.232,2571.71 618.827,2571.6L613.363,2571.16ZM629.755,2572.48C628.35,2572.37 627.117,2573.41 627.003,2574.82C626.89,2576.22 627.938,2577.46 629.343,2577.57L634.807,2578.01C636.212,2578.13 637.445,2577.08 637.558,2575.67C637.672,2574.27 636.624,2573.03 635.219,2572.92L629.755,2572.48ZM646.146,2573.8C644.741,2573.69 643.509,2574.74 643.395,2576.14C643.281,2577.55 644.33,2578.78 645.735,2578.9L651.199,2579.34C652.604,2579.45 653.837,2578.4 653.95,2577C654.064,2575.59 653.015,2574.36 651.61,2574.25L646.146,2573.8ZM662.538,2575.13C661.133,2575.02 659.9,2576.07 659.786,2577.47C659.673,2578.88 660.721,2580.11 662.126,2580.22L667.59,2580.66C668.995,2580.78 670.228,2579.73 670.342,2578.32C670.455,2576.92 669.407,2575.69 668.002,2575.57L662.538,2575.13ZM678.93,2576.45C677.525,2576.34 676.292,2577.39 676.178,2578.8C676.065,2580.2 677.113,2581.43 678.518,2581.55L683.982,2581.99C685.387,2582.1 686.62,2581.05 686.733,2579.65C686.847,2578.24 685.799,2577.01 684.394,2576.9L678.93,2576.45ZM695.321,2577.78C693.916,2577.67 692.683,2578.72 692.57,2580.12C692.456,2581.53 693.505,2582.76 694.91,2582.87L700.374,2583.31C701.778,2583.43 703.011,2582.38 703.125,2580.97C703.239,2579.57 702.19,2578.34 700.785,2578.22L695.321,2577.78ZM711.713,2579.11C710.308,2578.99 709.075,2580.04 708.961,2581.45C708.848,2582.85 709.896,2584.08 711.301,2584.2L714.033,2584.42C714.102,2584.42 714.17,2584.43 714.239,2584.43C715.032,2584.43 715.817,2584.46 716.591,2584.54C717.994,2584.67 719.242,2583.64 719.376,2582.24C719.509,2580.83 718.479,2579.59 717.076,2579.45C716.176,2579.37 715.265,2579.32 714.345,2579.32L711.713,2579.11ZM727.917,2582.67C726.668,2582.01 725.124,2582.5 724.471,2583.75C723.818,2585 724.302,2586.54 725.552,2587.19C726.948,2587.92 728.266,2588.78 729.489,2589.76C730.591,2590.64 732.199,2590.46 733.078,2589.36C733.957,2588.25 733.776,2586.64 732.674,2585.77C731.197,2584.59 729.605,2583.55 727.917,2582.67ZM740.01,2594.36C739.315,2593.13 737.755,2592.7 736.529,2593.4C735.302,2594.09 734.87,2595.65 735.565,2596.88C736.332,2598.23 736.974,2599.67 737.474,2601.17C737.92,2602.5 739.368,2603.23 740.705,2602.78C742.042,2602.33 742.766,2600.89 742.319,2599.55C741.714,2597.74 740.938,2596 740.01,2594.36ZM743.778,2610.76C743.864,2609.35 742.793,2608.14 741.386,2608.05C739.979,2607.96 738.766,2609.04 738.679,2610.44C738.581,2612.03 738.331,2613.59 737.942,2615.08C737.588,2616.45 738.408,2617.84 739.772,2618.2C741.136,2618.55 742.532,2617.73 742.886,2616.37C743.356,2614.56 743.659,2612.68 743.778,2610.76ZM737.994,2626.56C738.836,2625.43 738.601,2623.83 737.47,2622.99C736.34,2622.14 734.738,2622.38 733.897,2623.51C732.958,2624.77 731.902,2625.94 730.743,2627C729.702,2627.95 729.629,2629.56 730.58,2630.61C731.53,2631.65 733.147,2631.72 734.188,2630.77C735.586,2629.49 736.862,2628.08 737.994,2626.56ZM724.543,2636.66C725.864,2636.17 726.538,2634.7 726.047,2633.38C725.555,2632.06 724.084,2631.38 722.763,2631.88C721.31,2632.41 719.793,2632.82 718.225,2633.08C716.834,2633.31 715.89,2634.62 716.118,2636.01C716.346,2637.4 717.66,2638.35 719.051,2638.12C720.949,2637.81 722.785,2637.32 724.543,2636.66ZM708.491,2638.98C709.896,2638.87 710.944,2637.64 710.831,2636.23C710.717,2634.83 709.484,2633.78 708.079,2633.89L702.9,2634.31C701.495,2634.42 700.447,2635.66 700.561,2637.06C700.674,2638.47 701.907,2639.51 703.312,2639.4L708.491,2638.98ZM692.954,2640.24C694.359,2640.12 695.407,2638.89 695.293,2637.49C695.18,2636.08 693.947,2635.03 692.542,2635.15L687.363,2635.57C685.958,2635.68 684.909,2636.91 685.023,2638.32C685.137,2639.72 686.369,2640.77 687.774,2640.66L692.954,2640.24ZM677.416,2641.49C678.821,2641.38 679.87,2640.15 679.756,2638.74C679.643,2637.34 678.41,2636.29 677.005,2636.4L671.826,2636.82C670.421,2636.93 669.372,2638.17 669.486,2639.57C669.599,2640.98 670.832,2642.03 672.237,2641.91L677.416,2641.49ZM661.879,2642.75C663.284,2642.64 664.332,2641.4 664.219,2640C664.105,2638.59 662.872,2637.55 661.467,2637.66L656.288,2638.08C654.883,2638.19 653.835,2639.42 653.949,2640.83C654.062,2642.23 655.295,2643.28 656.7,2643.17L661.879,2642.75ZM646.342,2644.01C647.747,2643.89 648.795,2642.66 648.682,2641.25C648.568,2639.85 647.335,2638.8 645.93,2638.91L640.751,2639.33C639.346,2639.45 638.298,2640.68 638.411,2642.09C638.525,2643.49 639.758,2644.54 641.163,2644.42L646.342,2644.01ZM630.804,2645.26C632.209,2645.15 633.258,2643.91 633.144,2642.51C633.031,2641.11 631.798,2640.06 630.393,2640.17L625.214,2640.59C623.809,2640.7 622.76,2641.94 622.874,2643.34C622.987,2644.75 624.22,2645.79 625.625,2645.68L630.804,2645.26ZM615.267,2646.52C616.672,2646.4 617.721,2645.17 617.607,2643.77C617.494,2642.36 616.261,2641.31 614.856,2641.43L609.677,2641.85C608.272,2641.96 607.223,2643.19 607.337,2644.6C607.45,2646 608.683,2647.05 610.088,2646.94L615.267,2646.52ZM599.73,2647.77C601.135,2647.66 602.183,2646.43 602.07,2645.02C601.956,2643.62 600.723,2642.57 599.318,2642.68L594.139,2643.1C592.734,2643.22 591.686,2644.45 591.799,2645.85C591.913,2647.26 593.146,2648.31 594.551,2648.19L599.73,2647.77ZM584.193,2649.03C585.598,2648.92 586.646,2647.68 586.533,2646.28C586.419,2644.87 585.186,2643.83 583.781,2643.94L578.602,2644.36C577.197,2644.47 576.149,2645.7 576.262,2647.11C576.376,2648.51 577.609,2649.56 579.014,2649.45L584.193,2649.03ZM568.655,2650.29C570.06,2650.17 571.109,2648.94 570.995,2647.53C570.882,2646.13 569.649,2645.08 568.244,2645.19L563.065,2645.61C561.66,2645.73 560.611,2646.96 560.725,2648.37C560.838,2649.77 562.071,2650.82 563.476,2650.7L568.655,2650.29ZM553.118,2651.54C554.523,2651.43 555.572,2650.2 555.458,2648.79C555.344,2647.39 554.112,2646.34 552.707,2646.45C552.707,2646.45 550.222,2646.65 550.213,2646.65C549.42,2646.65 548.633,2646.62 547.852,2646.57C546.446,2646.48 545.23,2647.55 545.139,2648.96C545.048,2650.36 546.116,2651.58 547.523,2651.67C548.448,2651.73 549.382,2651.76 550.323,2651.76C550.392,2651.76 550.46,2651.76 550.529,2651.75L553.118,2651.54ZM536.548,2649.49C537.883,2649.95 539.335,2649.23 539.788,2647.9C540.242,2646.56 539.526,2645.11 538.191,2644.66C536.624,2644.12 535.102,2643.49 533.634,2642.76C532.37,2642.14 530.837,2642.66 530.213,2643.92C529.588,2645.19 530.106,2646.72 531.37,2647.34C533.038,2648.17 534.767,2648.89 536.548,2649.49ZM522.077,2641.12C523.136,2642.05 524.751,2641.95 525.681,2640.89C526.611,2639.83 526.506,2638.21 525.447,2637.28C524.208,2636.2 523.041,2635.03 521.954,2633.79C521.024,2632.73 519.409,2632.62 518.35,2633.55C517.291,2634.49 517.185,2636.1 518.115,2637.16C519.349,2638.56 520.672,2639.89 522.077,2641.12ZM511.893,2627.87C512.517,2629.13 514.05,2629.65 515.314,2629.02C516.578,2628.4 517.096,2626.87 516.471,2625.6C515.745,2624.13 515.112,2622.61 514.58,2621.05C514.126,2619.71 512.675,2618.99 511.34,2619.45C510.005,2619.9 509.29,2621.35 509.743,2622.69C510.349,2624.47 511.068,2626.2 511.893,2627.87ZM507.567,2611.71C507.658,2613.12 508.874,2614.19 510.281,2614.1C511.687,2614.01 512.755,2612.79 512.664,2611.38C512.612,2610.57 512.585,2609.74 512.585,2608.91C512.585,2608.08 512.612,2607.26 512.664,2606.44C512.755,2605.04 511.687,2603.82 510.281,2603.73C508.874,2603.64 507.658,2604.71 507.567,2606.11C507.507,2607.04 507.477,2607.97 507.477,2608.91C507.477,2609.85 507.507,2610.79 507.567,2611.71ZM509.743,2595.14C509.29,2596.47 510.005,2597.93 511.34,2598.38C512.675,2598.83 514.126,2598.12 514.58,2596.78C515.112,2595.21 515.745,2593.69 516.471,2592.22C517.096,2590.96 516.577,2589.43 515.314,2588.8C514.05,2588.18 512.517,2588.7 511.893,2589.96C511.068,2591.63 510.349,2593.36 509.743,2595.14ZM518.115,2580.67C517.185,2581.73 517.291,2583.34 518.35,2584.27C519.409,2585.2 521.024,2585.1 521.954,2584.04C523.041,2582.8 524.208,2581.63 525.447,2580.55C526.506,2579.62 526.611,2578 525.681,2576.94C524.751,2575.88 523.136,2575.78 522.077,2576.71C520.672,2577.94 519.348,2579.26 518.115,2580.67ZM531.37,2570.48C530.106,2571.11 529.588,2572.64 530.213,2573.91C530.837,2575.17 532.37,2575.69 533.634,2575.06C535.102,2574.34 536.623,2573.7 538.191,2573.17C539.526,2572.72 540.241,2571.26 539.788,2569.93C539.335,2568.6 537.883,2567.88 536.548,2568.33C534.767,2568.94 533.038,2569.66 531.37,2570.48Z"
        style="fill:var(--on-primary);"/>
    </g>
    <g transform="matrix(0.67242,0.832019,0.836296,-0.668981,977.613,2040.02)">
      <path
        d="M1960.47,2777.27C1934.43,2768.56 1906.22,2782.64 1897.51,2808.68C1888.81,2834.72 1902.88,2862.93 1928.92,2871.64C1962.29,2882.79 1986.37,2914.32 1986.37,2951.42C1986.37,2978.88 2008.66,3001.17 2036.12,3001.17C2063.57,3001.17 2085.87,2978.88 2085.87,2951.42C2085.87,2870.43 2033.31,2801.63 1960.47,2777.27Z"
        style="fill:var(--primary);"/>
    </g>
    <g transform="matrix(-0.639182,-0.790891,1.13152,-0.905138,4335.04,2691.56)">
      <path
        d="M448.31,675.565C448.277,674.773 448.977,674.025 450.1,673.759C451.476,673.434 452.969,673.954 453.432,674.921L463.833,696.623C465.12,699.309 469.27,700.756 473.095,699.852C476.919,698.947 478.979,696.031 477.691,693.344L464.471,665.759C464.008,664.793 464.748,663.744 466.124,663.419C467.5,663.093 468.993,663.614 469.456,664.58L482.676,692.165C484.89,696.785 481.349,701.798 474.773,703.354C468.198,704.909 461.062,702.421 458.848,697.802L453.569,686.788L453.569,709.825C453.569,714.699 447.936,718.657 440.998,718.657C437.962,718.657 435.175,717.899 433.002,716.638C431.3,720.1 426.618,722.59 421.115,722.59C415.612,722.59 410.93,720.1 409.229,716.638C407.055,717.899 404.269,718.657 401.232,718.657C394.294,718.657 388.661,714.699 388.661,709.825L388.661,708.778C386.6,709.816 384.076,710.427 381.35,710.427C374.411,710.427 368.778,706.469 368.778,701.595L368.778,652.194C368.778,651.174 369.957,650.346 371.408,650.346C372.86,650.346 374.038,651.174 374.038,652.194L374.038,701.595C374.038,704.43 377.314,706.731 381.35,706.731C385.385,706.731 388.661,704.43 388.661,701.595L388.661,670.744C388.661,669.724 389.839,668.896 391.291,668.896C392.742,668.896 393.921,669.724 393.921,670.744L393.921,709.825C393.921,712.66 397.197,714.962 401.232,714.962C405.268,714.962 408.544,712.66 408.544,709.825L408.544,675.565C408.544,674.545 409.722,673.717 411.174,673.717C412.625,673.717 413.804,674.545 413.804,675.565L413.804,713.757C413.804,716.592 417.08,718.894 421.115,718.894C425.15,718.894 428.427,716.592 428.427,713.757L428.427,675.565C428.427,674.545 429.605,673.717 431.057,673.717C432.508,673.717 433.687,674.545 433.687,675.565L433.687,709.825C433.687,712.66 436.963,714.962 440.998,714.962C445.033,714.962 448.309,712.66 448.309,709.825L448.31,675.565Z"
        style="fill:var(--on-primary);"/>
    </g>
    <g transform="matrix(1.0731,0,0,1.06761,4268.3,-974.458)">
      <path
        d="M659.874,2386.67L656.68,2394.59C656.164,2395.87 654.706,2396.49 653.426,2395.98C652.146,2395.46 651.526,2394 652.042,2392.72L657.722,2378.64L672.908,2378.46C674.288,2378.45 675.421,2379.55 675.437,2380.93C675.453,2382.31 674.345,2383.45 672.966,2383.46L663.86,2383.57C670.605,2395.25 674.466,2408.8 674.466,2423.24C674.466,2456.89 653.516,2485.68 623.959,2497.28C622.674,2497.78 621.222,2497.15 620.719,2495.87C620.215,2494.58 620.848,2493.13 622.133,2492.63C649.832,2481.76 669.466,2454.78 669.466,2423.24C669.466,2409.95 665.981,2397.47 659.874,2386.67Z"
        style="fill:var(--on-primary);"/>
    </g>
  </g>
</svg>
