<svg viewBox="0 0 407 446" xmlns="http://www.w3.org/2000/svg">
  <g transform="matrix(1,0,0,1,-3713.11,-798.092)">
    <g transform="matrix(1.39183,0,0,1.39183,3002.35,-2642.87)">
      <path
        d="M510.665,2646.64L510.665,2517.38C510.665,2511.68 515.29,2507.06 520.986,2507.06L639.857,2507.06C645.553,2507.06 650.178,2511.68 650.178,2517.38L650.178,2646.64C650.178,2652.34 645.553,2656.96 639.857,2656.96L520.986,2656.96C515.29,2656.96 510.665,2652.34 510.665,2646.64ZM645.178,2527.43L645.178,2517.38C645.178,2514.44 642.794,2512.06 639.857,2512.06L520.986,2512.06C518.049,2512.06 515.665,2514.44 515.665,2517.38L515.665,2527.43L645.178,2527.43ZM515.665,2532.43L515.665,2646.64C515.665,2649.58 518.049,2651.96 520.986,2651.96L639.857,2651.96C642.794,2651.96 645.178,2649.58 645.178,2646.64L645.178,2532.43L515.665,2532.43Z"
        style="fill:var(--on-primary);"/>
    </g>
    <g transform="matrix(1.39183,0,0,0.997633,3214.84,-1702.05)">
      <path
        d="M510.665,2643.55L510.665,2520.47C510.665,2512.52 515.29,2506.07 520.986,2506.07L639.857,2506.07C645.553,2506.07 650.178,2512.52 650.178,2520.47L650.178,2643.55C650.178,2651.5 645.553,2657.95 639.857,2657.95L520.986,2657.95C515.29,2657.95 510.665,2651.5 510.665,2643.55ZM645.178,2534.5L645.178,2520.47C645.178,2516.37 642.794,2513.05 639.857,2513.05L520.986,2513.05C518.049,2513.05 515.665,2516.37 515.665,2520.47L515.665,2534.5L645.178,2534.5ZM515.665,2541.47L515.665,2643.55C515.665,2647.65 518.049,2650.98 520.986,2650.98L639.857,2650.98C642.794,2650.98 645.178,2647.65 645.178,2643.55L645.178,2541.47L515.665,2541.47Z"
        style="fill:var(--on-primary);"/>
    </g>
    <g transform="matrix(1.39183,0,0,1.39183,2997.86,-2645.34)">
      <circle cx="527.555" cy="2521.76" r="2.822" style="fill:var(--on-primary);"/>
    </g>
    <g transform="matrix(1.39183,0,0,1.39183,3210.34,-2693.78)">
      <circle cx="527.555" cy="2521.76" r="2.822" style="fill:var(--on-primary);"/>
    </g>
    <g transform="matrix(1.39183,0,0,1.39183,3009.89,-2645.34)">
      <circle cx="527.555" cy="2521.76" r="2.822" style="fill:var(--on-primary);"/>
    </g>
    <g transform="matrix(1.39183,0,0,1.39183,3222.37,-2693.78)">
      <circle cx="527.555" cy="2521.76" r="2.822" style="fill:var(--on-primary);"/>
    </g>
    <g transform="matrix(1.39183,0,0,1.39183,3021.92,-2645.34)">
      <circle cx="527.555" cy="2521.76" r="2.822" style="fill:var(--on-primary);"/>
    </g>
    <g transform="matrix(1.39183,0,0,1.39183,3234.41,-2693.78)">
      <circle cx="527.555" cy="2521.76" r="2.822" style="fill:var(--on-primary);"/>
    </g>
    <g transform="matrix(1.39183,0,0,1.39183,3007.19,-2639.3)">
      <path
        d="M556.381,2613.18C555.707,2613.18 555.075,2612.86 554.681,2612.31C554.287,2611.76 554.18,2611.06 554.393,2610.42C556.833,2603.1 563.487,2583.15 566.5,2574.11C566.764,2573.32 567.47,2572.76 568.3,2572.69C569.13,2572.61 569.925,2573.04 570.326,2573.77C572.821,2578.32 576.729,2585.44 578.877,2589.36C579.218,2589.98 579.849,2590.39 580.555,2590.44C581.261,2590.5 581.946,2590.19 582.377,2589.63C583.467,2588.21 584.828,2586.44 585.963,2584.96C586.423,2584.36 587.171,2584.05 587.92,2584.16C588.669,2584.27 589.302,2584.77 589.577,2585.47C592.002,2591.68 597.046,2604.58 599.289,2610.32C599.541,2610.97 599.458,2611.69 599.068,2612.26C598.677,2612.84 598.03,2613.18 597.337,2613.18C588.78,2613.18 564.74,2613.18 556.381,2613.18Z"
        style="fill:var(--on-primary);"/>
    </g>
    <g transform="matrix(1.39183,0,0,1.39183,3007.19,-2639.3)">
      <path
        d="M557.52,2615.68C555.779,2615.68 554.144,2614.84 553.126,2613.43C552.108,2612.02 551.831,2610.2 552.382,2608.55L563.534,2575.11C564.215,2573.06 566.041,2571.62 568.186,2571.42C570.331,2571.23 572.386,2572.33 573.422,2574.21L580.464,2587.06C580.532,2587.18 580.657,2587.26 580.798,2587.27C580.938,2587.28 581.075,2587.22 581.16,2587.11L583.093,2584.59C584.284,2583.04 586.217,2582.25 588.152,2582.53C590.087,2582.8 591.724,2584.1 592.436,2585.92L601.18,2608.29C601.831,2609.96 601.617,2611.84 600.608,2613.32C599.599,2614.8 597.925,2615.68 596.135,2615.68L557.52,2615.68ZM557.52,2610.68L596.135,2610.68C596.272,2610.68 596.401,2610.61 596.479,2610.5C596.557,2610.38 596.573,2610.24 596.523,2610.11L587.779,2587.74C587.724,2587.6 587.598,2587.5 587.449,2587.48C587.3,2587.45 587.151,2587.52 587.06,2587.64L585.127,2590.15C584.012,2591.61 582.24,2592.4 580.416,2592.26C578.591,2592.12 576.96,2591.07 576.08,2589.46L569.038,2576.62C568.958,2576.47 568.8,2576.39 568.635,2576.4C568.47,2576.42 568.329,2576.53 568.277,2576.69L557.125,2610.13C557.082,2610.26 557.104,2610.4 557.182,2610.51C557.26,2610.61 557.386,2610.68 557.52,2610.68Z"
        style="fill:none;"/>
    </g>
    <g transform="matrix(1.39183,0,0,1.39183,3006.8,-2644.13)">
      <circle cx="588.764" cy="2574.09" r="4.533" style="fill:var(--on-primary);"/>
    </g>
    <g transform="matrix(0.636063,0.636063,-0.636063,0.636063,5281.94,-1130.72)">
      <path
        d="M605.173,2611.87C607.308,2611.87 609.041,2613.61 609.041,2615.74C609.041,2617.88 607.308,2619.61 605.173,2619.61L558.085,2619.61C555.949,2619.61 554.217,2617.88 554.217,2615.74L554.217,2568.66C554.217,2566.52 555.95,2564.79 558.085,2564.79C560.22,2564.79 561.954,2566.52 561.954,2568.66C561.954,2568.66 561.954,2611.87 561.954,2611.87L605.173,2611.87Z"
        style="fill:var(--on-primary);"/>
    </g>
    <g transform="matrix(-0.636063,0.636063,0.636063,0.636063,2763.42,-1130.72)">
      <path
        d="M605.173,2619.61C607.308,2619.61 609.041,2617.88 609.041,2615.74C609.041,2613.61 607.308,2611.87 605.173,2611.87C605.173,2611.87 561.954,2611.87 561.954,2611.87L561.954,2568.66C561.954,2566.52 560.22,2564.79 558.085,2564.79C555.95,2564.79 554.217,2566.52 554.217,2568.66L554.217,2615.74C554.217,2617.88 555.949,2619.61 558.085,2619.61L605.173,2619.61Z"
        style="fill:var(--on-primary);"/>
    </g>
    <g transform="matrix(1.39183,0,0,1.39183,2982.76,-2644.52)">
      <path
        d="M748.781,2516.08C749.037,2514.72 750.346,2513.83 751.702,2514.09C753.058,2514.35 753.95,2515.65 753.694,2517.01L745.546,2560.05C745.289,2561.4 743.98,2562.3 742.625,2562.04C741.269,2561.78 740.377,2560.47 740.633,2559.12L748.781,2516.08Z"
        style="fill:var(--on-primary);"/>
    </g>
    <g transform="matrix(-0.994041,1.07679,1.07679,0.994041,2475.08,-1511.21)">
      <circle cx="590.978" cy="1951.41" r="47.25" style="fill:var(--primary);"/>
    </g>
    <g transform="matrix(-0.972133,-0.897423,1.27736,-1.3837,3549.92,2361.79)">
      <path
        d="M448.31,675.565C448.277,674.773 448.977,674.025 450.1,673.759C451.476,673.434 452.969,673.954 453.432,674.921L463.833,696.623C465.12,699.309 469.27,700.756 473.095,699.852C476.919,698.947 478.979,696.031 477.691,693.344L464.471,665.759C464.008,664.793 464.748,663.744 466.124,663.419C467.5,663.093 468.993,663.614 469.456,664.58L482.676,692.165C484.89,696.785 481.349,701.798 474.773,703.354C468.198,704.909 461.062,702.421 458.848,697.802L453.569,686.788L453.569,709.825C453.569,714.699 447.936,718.657 440.998,718.657C437.962,718.657 435.175,717.899 433.002,716.638C431.3,720.1 426.618,722.59 421.115,722.59C415.612,722.59 410.93,720.1 409.229,716.638C407.055,717.899 404.269,718.657 401.232,718.657C394.294,718.657 388.661,714.699 388.661,709.825L388.661,708.778C386.6,709.816 384.076,710.427 381.35,710.427C374.411,710.427 368.778,706.469 368.778,701.595L368.778,664.129C368.778,663.109 369.957,662.281 371.408,662.281C372.86,662.281 374.038,663.109 374.038,664.129L374.038,701.595C374.038,704.43 377.314,706.731 381.35,706.731C385.385,706.731 388.661,704.43 388.661,701.595L388.661,670.744C388.661,669.724 389.839,668.896 391.291,668.896C392.742,668.896 393.921,669.724 393.921,670.744L393.921,709.825C393.921,712.66 397.197,714.962 401.232,714.962C405.268,714.962 408.544,712.66 408.544,709.825L408.544,675.565C408.544,674.545 409.722,673.717 411.174,673.717C412.625,673.717 413.804,674.545 413.804,675.565L413.804,713.757C413.804,716.592 417.08,718.894 421.115,718.894C425.15,718.894 428.427,716.592 428.427,713.757L428.427,675.565C428.427,674.545 429.605,673.717 431.057,673.717C432.508,673.717 433.687,674.545 433.687,675.565L433.687,709.825C433.687,712.66 436.963,714.962 440.998,714.962C445.033,714.962 448.309,712.66 448.309,709.825L448.31,675.565Z"
        style="fill:var(--on-primary);"/>
    </g>
    <g transform="matrix(0.909704,1.14893,-1.14893,0.909704,5554.85,-1280.74)">
      <circle cx="590.978" cy="1951.41" r="47.25" style="fill:var(--primary);"/>
    </g>
    <g transform="matrix(1.03726,-0.821283,-1.16899,-1.4764,4190.01,2499.82)">
      <path
        d="M388.661,701.595C388.661,704.43 385.385,706.731 381.35,706.731C377.314,706.731 374.038,704.43 374.038,701.595L374.038,664.129C374.038,663.109 372.86,662.281 371.408,662.281C369.957,662.281 368.778,663.109 368.778,664.129L368.778,701.595C368.778,706.469 374.411,710.427 381.35,710.427C384.076,710.427 386.6,709.816 388.661,708.778L388.661,709.825C388.661,714.699 394.294,718.657 401.232,718.657C404.269,718.657 407.055,717.899 409.229,716.638C410.93,720.1 415.612,722.59 421.115,722.59C426.618,722.59 431.3,720.1 433.002,716.638C435.175,717.899 437.962,718.657 440.998,718.657C447.936,718.657 453.569,714.699 453.569,709.825L453.569,686.788L458.848,697.802C461.062,702.421 468.198,704.909 474.773,703.354C481.349,701.798 484.89,696.785 482.676,692.165L469.456,664.58C468.993,663.614 467.5,663.093 466.124,663.419C464.748,663.744 464.008,664.793 464.471,665.759L477.691,693.344C478.979,696.031 476.919,698.947 473.095,699.852C469.27,700.756 465.12,699.309 463.833,696.623L453.432,674.921C452.969,673.954 451.476,673.434 450.1,673.759C448.977,674.025 448.277,674.773 448.31,675.565L448.309,709.825C448.309,712.66 445.033,714.962 440.998,714.962C436.963,714.962 433.687,712.66 433.687,709.825L433.687,675.565C433.687,674.545 432.508,673.717 431.057,673.717C429.605,673.717 428.427,674.545 428.427,675.565L428.427,713.757C428.427,716.592 425.15,718.894 421.115,718.894C417.08,718.894 413.804,716.592 413.804,713.757L413.804,675.565C413.804,674.545 412.625,673.717 411.174,673.717C409.722,673.717 408.544,674.545 408.544,675.565L408.544,709.825C408.544,712.66 405.268,714.962 401.232,714.962C397.197,714.962 393.921,712.66 393.921,709.825L393.921,670.744C393.921,669.724 392.742,668.896 391.291,668.896C389.839,668.896 388.661,669.724 388.661,670.744L388.661,701.595Z"
        style="fill:var(--on-primary);"/>
    </g>
  </g>
</svg>
