<svg viewBox="0 0 453 273" xmlns="http://www.w3.org/2000/svg"
     style="fill-rule:evenodd;clip-rule:evenodd;stroke-linecap:round;stroke-linejoin:round;stroke-miterlimit:1.5;">
  <g transform="matrix(1,0,0,1,-2848.71,-2161.92)">
    <g transform="matrix(1.17338,0,0,1.17338,3061.05,2169.92)">
      <path
        d="M16.44,3.102C14.63,3.102 13.01,3.982 12,5.332C10.99,3.982 9.37,3.102 7.56,3.102C4.49,3.102 2,5.602 2,8.692C2,9.882 2.19,10.982 2.52,12.002C4.1,17.002 8.97,19.992 11.38,20.812C11.72,20.932 12.28,20.932 12.62,20.812C15.03,19.992 19.9,17.002 21.48,12.002C21.81,10.982 22,9.882 22,8.692C22,5.602 19.51,3.102 16.44,3.102Z"
        style="fill:var(--on-primary);fill-rule:nonzero;"/>
    </g>
    <g transform="matrix(0.829703,-0.829703,0.829703,0.829703,894.636,1149.14)">
      <path
        d="M631.818,2047.78C631.818,2020.33 654.11,1998.03 681.568,1998.03C709.026,1998.03 731.318,2020.33 731.318,2047.78L731.318,2119.86C731.318,2147.32 709.026,2169.61 681.568,2169.61C654.11,2169.61 631.818,2147.32 631.818,2119.86L631.818,2047.78Z"
        style="fill:var(--primary);"/>
    </g>
    <g transform="matrix(0.788691,-0.788691,-1.1226,-1.1226,3578.76,3366.45)">
      <path
        d="M388.661,701.595C388.661,704.43 385.385,706.731 381.35,706.731C377.314,706.731 374.038,704.43 374.038,701.595L374.038,652.194C374.038,651.174 372.86,650.346 371.408,650.346C369.957,650.346 368.778,651.174 368.778,652.194L368.778,701.595C368.778,706.469 374.411,710.427 381.35,710.427C384.076,710.427 386.6,709.816 388.661,708.778L388.661,709.825C388.661,714.699 394.294,718.657 401.232,718.657C404.269,718.657 407.055,717.899 409.229,716.638C410.93,720.1 415.612,722.59 421.115,722.59C426.618,722.59 431.3,720.1 433.002,716.638C435.175,717.899 437.962,718.657 440.998,718.657C447.936,718.657 453.569,714.699 453.569,709.825L453.569,686.788L458.848,697.802C461.062,702.421 468.198,704.909 474.773,703.354C481.349,701.798 484.89,696.785 482.676,692.165L469.456,664.58C468.993,663.614 467.5,663.093 466.124,663.419C464.748,663.744 464.008,664.793 464.471,665.759L477.691,693.344C478.979,696.031 476.919,698.947 473.095,699.852C469.27,700.756 465.12,699.309 463.833,696.623L453.432,674.921C452.969,673.954 451.476,673.434 450.1,673.759C448.977,674.025 448.277,674.773 448.31,675.565L448.309,709.825C448.309,712.66 445.033,714.962 440.998,714.962C436.963,714.962 433.687,712.66 433.687,709.825L433.687,675.565C433.687,674.545 432.508,673.717 431.057,673.717C429.605,673.717 428.427,674.545 428.427,675.565L428.427,713.757C428.427,716.592 425.15,718.894 421.115,718.894C417.08,718.894 413.804,716.592 413.804,713.757L413.804,675.565C413.804,674.545 412.625,673.717 411.174,673.717C409.722,673.717 408.544,674.545 408.544,675.565L408.544,709.825C408.544,712.66 405.268,714.962 401.232,714.962C397.197,714.962 393.921,712.66 393.921,709.825L393.921,670.744C393.921,669.724 392.742,668.896 391.291,668.896C389.839,668.896 388.661,669.724 388.661,670.744L388.661,701.595Z"
        style="fill:var(--on-primary);"/>
    </g>
    <g transform="matrix(-0.829703,-0.829703,-0.829703,0.829703,5255.62,1158.65)">
      <path
        d="M731.318,2047.78C731.318,2020.33 709.026,1998.03 681.568,1998.03C654.11,1998.03 631.818,2020.33 631.818,2047.78L631.818,2119.86C631.818,2147.32 654.11,2169.61 681.568,2169.61C709.026,2169.61 731.318,2147.32 731.318,2119.86L731.318,2047.78Z"
        style="fill:var(--primary);"/>
    </g>
    <g transform="matrix(-0.788691,-0.788691,1.1226,-1.1226,2571.5,3375.95)">
      <path
        d="M448.31,675.565C448.277,674.773 448.977,674.025 450.1,673.759C451.476,673.434 452.969,673.954 453.432,674.921L463.833,696.623C465.12,699.309 469.27,700.756 473.095,699.852C476.919,698.947 478.979,696.031 477.691,693.344L464.471,665.759C464.008,664.793 464.748,663.744 466.124,663.419C467.5,663.093 468.993,663.614 469.456,664.58L482.676,692.165C484.89,696.785 481.349,701.798 474.773,703.354C468.198,704.909 461.062,702.421 458.848,697.802L453.569,686.788L453.569,709.825C453.569,714.699 447.936,718.657 440.998,718.657C437.962,718.657 435.175,717.899 433.002,716.638C431.3,720.1 426.618,722.59 421.115,722.59C415.612,722.59 410.93,720.1 409.229,716.638C407.055,717.899 404.269,718.657 401.232,718.657C394.294,718.657 388.661,714.699 388.661,709.825L388.661,708.778C386.6,709.816 384.076,710.427 381.35,710.427C374.411,710.427 368.778,706.469 368.778,701.595L368.778,652.194C368.778,651.174 369.957,650.346 371.408,650.346C372.86,650.346 374.038,651.174 374.038,652.194L374.038,701.595C374.038,704.43 377.314,706.731 381.35,706.731C385.385,706.731 388.661,704.43 388.661,701.595L388.661,670.744C388.661,669.724 389.839,668.896 391.291,668.896C392.742,668.896 393.921,669.724 393.921,670.744L393.921,709.825C393.921,712.66 397.197,714.962 401.232,714.962C405.268,714.962 408.544,712.66 408.544,709.825L408.544,675.565C408.544,674.545 409.722,673.717 411.174,673.717C412.625,673.717 413.804,674.545 413.804,675.565L413.804,713.757C413.804,716.592 417.08,718.894 421.115,718.894C425.15,718.894 428.427,716.592 428.427,713.757L428.427,675.565C428.427,674.545 429.605,673.717 431.057,673.717C432.508,673.717 433.687,674.545 433.687,675.565L433.687,709.825C433.687,712.66 436.963,714.962 440.998,714.962C445.033,714.962 448.309,712.66 448.309,709.825L448.31,675.565Z"
        style="fill:var(--on-primary);"/>
    </g>
    <g transform="matrix(1.17338,0,0,1.17338,2544.98,-27.8484)">
      <path d="M451.811,1902.08L451.811,1928.57" style="fill:none;stroke:var(--on-primary);stroke-width:4.26px;"/>
    </g>
    <g transform="matrix(1.17338,0,0,1.17338,2544.98,-74.9935)">
      <path
        d="M434.958,1910.4C434.126,1909.3 434.345,1907.73 435.446,1906.89C436.548,1906.06 438.117,1906.28 438.948,1907.38L441.002,1910.1C441.833,1911.2 441.614,1912.77 440.513,1913.61C439.412,1914.44 437.843,1914.22 437.012,1913.12L434.958,1910.4Z"
        style="fill:var(--on-primary);"/>
    </g>
    <g transform="matrix(-1.17338,0,0,1.17338,3605.27,-74.9935)">
      <path
        d="M438.948,1907.38C438.117,1906.28 436.548,1906.06 435.446,1906.89C434.345,1907.73 434.126,1909.3 434.958,1910.4L437.012,1913.12C437.843,1914.22 439.412,1914.44 440.513,1913.61C441.614,1912.77 441.833,1911.2 441.002,1910.1L438.948,1907.38Z"
        style="fill:var(--on-primary);"/>
    </g>
  </g>
</svg>
