<svg viewBox="0 0 90 64" xmlns="http://www.w3.org/2000/svg"
     style="fill-rule:evenodd;clip-rule:evenodd;stroke-linejoin:round;stroke-miterlimit:2;">
  <g transform="matrix(1,0,0,1,-2286.57,-2929.98)">
    <g transform="matrix(-0.667804,-4.85325e-17,-4.85325e-17,0.667804,2712.78,1658.37)">
      <circle cx="590.978" cy="1951.41" r="47.25" style="fill:var(--primary);"/>
    </g>
    <g transform="matrix(4.23963e-17,-0.58337,0.830351,6.03455e-17,1763.09,3207.16)">
      <path
        d="M387.006,710.768C385.272,711.296 383.359,711.59 381.35,711.59C373.498,711.59 367.123,707.111 367.123,701.595L367.123,667.334C367.123,665.673 369.043,664.324 371.408,664.324C373.773,664.324 375.694,665.673 375.694,667.334L375.694,701.595C375.694,703.788 378.228,705.568 381.35,705.568C384.471,705.568 387.006,703.788 387.006,701.595L387.006,675.003C387.006,673.341 388.926,671.992 391.291,671.992C393.656,671.992 395.576,673.341 395.576,675.003L395.576,713.97C395.576,716.163 398.111,717.943 401.232,717.943C404.354,717.943 406.888,716.163 406.888,713.97L406.888,679.71C406.888,678.048 408.809,676.699 411.174,676.699C413.539,676.699 415.459,678.048 415.459,679.71L415.459,717.902C415.459,720.096 417.994,721.876 421.115,721.876C424.237,721.876 426.771,720.096 426.771,717.902L426.771,683.642C426.771,681.981 428.691,680.631 431.057,680.631C433.422,680.631 435.342,681.981 435.342,683.642L435.342,728.634C435.342,730.827 437.876,732.608 440.998,732.608C444.12,732.608 446.654,730.827 446.654,728.634L446.654,683.642C446.654,681.981 448.574,680.631 450.939,680.631C453.305,680.631 455.225,681.981 455.225,683.642L455.225,706.541C455.225,708.734 457.759,710.515 460.881,710.515C464.002,710.515 466.537,708.734 466.537,706.541L466.537,669.325C466.537,667.663 468.457,666.314 470.822,666.314C473.187,666.314 475.108,667.663 475.108,669.325L475.108,706.541C475.108,712.058 468.733,716.536 460.881,716.536C458.871,716.536 456.959,716.243 455.225,715.714L455.225,728.634C455.225,734.151 448.85,738.63 440.998,738.63C433.146,738.63 426.771,734.151 426.771,728.634L426.771,727.075C425.037,727.604 423.125,727.898 421.115,727.898C415.653,727.898 410.905,725.73 408.521,722.553C406.389,723.45 403.896,723.965 401.232,723.965C393.38,723.965 387.006,719.486 387.006,713.97L387.006,710.768Z"
        style="fill:var(--on-primary);"/>
    </g>
  </g>
</svg>
