<svg viewBox="0 0 738 542" xmlns="http://www.w3.org/2000/svg">
    <g transform="matrix(1,0,0,1,-7480,-149.095)">
        <g transform="matrix(-1.06768,-0.796824,-0.796824,1.06768,12257.7,-1143.99)">
            <path d="M1718.68,2951.42C1718.68,2978.88 1740.97,3001.17 1768.43,3001.17C1795.89,3001.17 1818.18,2978.88 1818.18,2951.42C1818.18,2905.01 1855.86,2867.33 1902.27,2867.33C1948.69,2867.33 1986.37,2905.01 1986.37,2951.42C1986.37,2978.88 2008.66,3001.17 2036.12,3001.17C2063.57,3001.17 2085.87,2978.88 2085.87,2951.42C2085.87,2850.09 2003.6,2767.83 1902.27,2767.83C1800.95,2767.83 1718.68,2850.09 1718.68,2951.42Z" style="fill:var(--primary);"/>
        </g>
      <g transform="matrix(-1.0149,-0.757436,-1.07811,1.44458,8875.37,-253.989)">
            <path d="M453.569,686.788L458.848,697.802C461.062,702.421 468.198,704.909 474.773,703.354C481.349,701.798 484.89,696.785 482.676,692.165L469.456,664.58C468.993,663.614 467.5,663.093 466.124,663.419C464.748,663.744 464.008,664.793 464.471,665.759L477.691,693.344C478.979,696.031 476.919,698.947 473.095,699.852C469.27,700.756 465.12,699.309 463.833,696.623L453.432,674.921C452.969,673.954 451.476,673.434 450.1,673.759C448.977,674.025 448.277,674.773 448.31,675.565L448.309,709.825C448.309,712.66 445.033,714.962 440.998,714.962C436.963,714.962 433.687,712.66 433.687,709.825L433.687,675.565C433.687,674.545 432.508,673.717 431.057,673.717C429.605,673.717 428.427,674.545 428.427,675.565L428.427,713.757C428.427,716.592 425.15,718.894 421.115,718.894C417.08,718.894 413.804,716.592 413.804,713.757L413.804,675.565C413.804,674.545 412.625,673.717 411.174,673.717C409.722,673.717 408.544,674.545 408.544,675.565L408.544,709.825C408.544,712.66 405.268,714.962 401.232,714.962C397.197,714.962 393.921,712.66 393.921,709.825L393.921,670.744C393.921,669.724 392.742,668.896 391.291,668.896C389.839,668.896 388.661,669.724 388.661,670.744L388.661,701.595C388.661,704.43 385.385,706.731 381.35,706.731C377.314,706.731 374.038,704.43 374.038,701.595L374.038,652.194C374.038,651.174 372.86,650.346 371.408,650.346C369.957,650.346 368.778,651.174 368.778,652.194L368.778,701.595C368.778,706.469 374.411,710.427 381.35,710.427C384.076,710.427 386.6,709.816 388.661,708.778L388.661,709.825C388.661,714.699 394.294,718.657 401.232,718.657C404.269,718.657 407.055,717.899 409.229,716.638C410.93,720.1 415.612,722.59 421.115,722.59C426.618,722.59 431.3,720.1 433.002,716.638C435.175,717.899 437.962,718.657 440.998,718.657C447.936,718.657 453.569,714.699 453.569,709.825L453.569,686.788Z" style="fill:var(--on-primary);"/>
        </g>
      <g transform="matrix(0.9164,-0.22282,0.462732,1.9031,6700.5,163.077)">
            <g transform="matrix(0.448808,-0.0929195,0.182001,0.203834,69.2847,-294.031)">
                <path d="M432.691,3095.27C423.95,3095.21 418.224,3092.76 414.246,3089.23C410.065,3085.51 407.632,3080.39 406.224,3074.22C404.963,3068.7 404.542,3062.21 403.518,3055.55C402.293,3047.58 400.164,3039.19 392.657,3032.81C366.382,3010.49 345.187,2981.04 345.187,2944.02C345.187,2885.27 392.675,2837.35 451.419,2837.35L451.423,2837.35C510.168,2837.35 557.655,2885.27 557.655,2944.02C557.655,2981.04 536.46,3010.49 510.185,3032.81C502.678,3039.19 500.549,3047.58 499.324,3055.55C498.3,3062.21 497.879,3068.7 496.619,3074.22C495.21,3080.39 492.777,3085.51 488.596,3089.23C484.618,3092.76 478.892,3095.21 470.151,3095.27C470.12,3095.27 470.09,3095.27 470.06,3095.27C469.97,3095.27 469.88,3095.27 469.79,3095.27L433.052,3095.27C432.962,3095.27 432.872,3095.27 432.782,3095.27C432.752,3095.27 432.722,3095.27 432.691,3095.27ZM477.289,3078.76C478.056,3078.42 478.727,3078 479.311,3077.48C482.569,3074.59 482.929,3069.65 483.625,3064.26C485.456,3050.06 486.752,3033.08 501.144,3020.85C524.012,3001.42 543.197,2976.24 543.197,2944.02C543.197,2893.48 501.962,2852.68 451.423,2852.68L451.419,2852.68C400.88,2852.68 359.645,2893.48 359.645,2944.02C359.645,2976.24 378.83,3001.42 401.698,3020.85C416.09,3033.08 417.386,3050.06 419.217,3064.26C419.913,3069.65 420.273,3074.59 423.531,3077.48C424.115,3078 424.786,3078.42 425.553,3078.76L425.553,2989.18L417.576,2989.18C405.079,2989.18 395.14,2978.81 395.14,2966.31C395.14,2953.82 405.079,2943.44 417.576,2943.44C430.072,2943.44 440.011,2953.82 440.011,2966.31L440.011,2973.85L462.831,2973.85L462.831,2966.31C462.831,2953.82 472.77,2943.44 485.266,2943.44C497.763,2943.44 507.702,2953.82 507.702,2966.31C507.702,2978.81 497.763,2989.18 485.266,2989.18L477.289,2989.18L477.289,3078.76ZM440.011,3079.94L462.831,3079.94L462.831,2989.18L440.011,2989.18L440.011,3079.94ZM477.289,2973.85L485.266,2973.85C489.558,2973.85 493.244,2970.6 493.244,2966.31C493.244,2962.02 489.558,2958.77 485.266,2958.77C480.975,2958.77 477.289,2962.02 477.289,2966.31L477.289,2973.85ZM425.553,2973.85L425.553,2966.31C425.553,2962.02 421.867,2958.77 417.576,2958.77C413.284,2958.77 409.598,2962.02 409.598,2966.31C409.598,2970.6 413.284,2973.85 417.576,2973.85L425.553,2973.85Z" style="fill:var(--on-primary);"/>
            </g>
        <g transform="matrix(0.448808,-0.0929195,0.182001,0.203834,69.2847,-294.031)">
                <path d="M458.65,2828.74C458.65,2832.97 455.411,2836.4 451.421,2836.4C447.431,2836.4 444.192,2832.97 444.192,2828.74L444.192,2798.39C444.192,2794.16 447.431,2790.72 451.421,2790.72C455.411,2790.72 458.65,2794.16 458.65,2798.39L458.65,2828.74Z" style="fill:var(--on-primary);"/>
            </g>
        <g transform="matrix(0.297679,-0.182387,0.382021,0.130065,-450.894,-36.6384)">
                <path d="M458.761,2828.35C458.761,2832.52 455.472,2836.07 451.421,2836.28C447.37,2836.5 444.081,2833.29 444.081,2829.12L444.081,2798.77C444.081,2794.6 447.37,2791.05 451.421,2790.84C455.472,2790.63 458.761,2793.84 458.761,2798L458.761,2828.35Z" style="fill:var(--on-primary);"/>
            </g>
        <g transform="matrix(0.0667866,-0.222985,0.47968,0.0214461,-633.946,301.214)">
                <path d="M458.979,2828.37C458.979,2832.41 455.592,2835.86 451.421,2836.07C447.25,2836.27 443.863,2833.16 443.863,2829.11L443.863,2798.76C443.863,2794.71 447.25,2791.26 451.421,2791.05C455.592,2790.85 458.979,2793.97 458.979,2798.01L458.979,2828.37Z" style="fill:var(--on-primary);"/>
            </g>
        <g transform="matrix(-0.182001,-0.203834,0.448808,-0.0929195,-430.823,628.999)">
                <path d="M459.085,2828.74C459.085,2832.73 455.651,2835.97 451.421,2835.97C447.191,2835.97 443.757,2832.73 443.757,2828.74L443.757,2798.39C443.757,2794.4 447.191,2791.16 451.421,2791.16C455.651,2791.16 459.085,2794.4 459.085,2798.39L459.085,2828.74Z" style="fill:var(--on-primary);"/>
            </g>
        <g transform="matrix(-0.382021,-0.130065,0.297679,-0.182387,104.049,858.886)">
                <path d="M458.979,2829.11C458.979,2833.16 455.592,2836.27 451.421,2836.07C447.25,2835.86 443.863,2832.41 443.863,2828.37L443.863,2798.01C443.863,2793.97 447.25,2790.85 451.421,2791.05C455.592,2791.26 458.979,2794.71 458.979,2798.76L458.979,2829.11Z" style="fill:var(--on-primary);"/>
            </g>
        <g transform="matrix(-0.47968,-0.0214461,-0.0667866,0.222985,1219.74,-382.52)">
                <path d="M444.081,2829.12C444.081,2833.29 447.37,2836.5 451.421,2836.28C455.472,2836.07 458.761,2832.52 458.761,2828.35L458.761,2798C458.761,2793.84 455.472,2790.63 451.421,2790.84C447.37,2791.05 444.081,2794.6 444.081,2798.77L444.081,2829.12Z" style="fill:var(--on-primary);"/>
            </g>
        <g transform="matrix(-0.382021,-0.130065,-0.297679,0.182387,1854.87,-214.062)">
                <path d="M443.863,2829.11C443.863,2833.16 447.25,2836.27 451.421,2836.07C455.592,2835.86 458.979,2832.41 458.979,2828.37L458.979,2798.01C458.979,2793.97 455.592,2790.85 451.421,2791.05C447.25,2791.26 443.863,2794.71 443.863,2798.76L443.863,2829.11Z" style="fill:var(--on-primary);"/>
            </g>
        <g transform="matrix(-0.182001,-0.203834,-0.448808,0.0929195,2209.16,82.4273)">
                <path d="M443.757,2828.74C443.757,2832.73 447.191,2835.97 451.421,2835.97C455.651,2835.97 459.085,2832.73 459.085,2828.74L459.085,2798.39C459.085,2794.4 455.651,2791.16 451.421,2791.16C447.191,2791.16 443.757,2794.4 443.757,2798.39L443.757,2828.74Z" style="fill:var(--on-primary);"/>
            </g>
        <g transform="matrix(0.0667866,-0.222985,-0.47968,-0.0214461,2187.66,427.503)">
                <path d="M443.863,2828.37C443.863,2832.41 447.25,2835.86 451.421,2836.07C455.592,2836.27 458.979,2833.16 458.979,2829.11L458.979,2798.76C458.979,2794.71 455.592,2791.26 451.421,2791.05C447.25,2790.85 443.863,2793.97 443.863,2798.01L443.863,2828.37Z" style="fill:var(--on-primary);"/>
            </g>
        <g transform="matrix(0.448808,-0.0929195,0.182001,0.203834,69.2857,-294.031)">
                <path d="M408.898,3119.96L407.966,3118.76L406.905,3116.69L406.231,3114.39L405.997,3111.94L406.231,3109.49L406.905,3107.19L407.966,3105.12L409.366,3103.32L411.062,3101.84L413.017,3100.71L415.185,3100L417.496,3099.75L485.341,3099.75L487.652,3100L489.821,3100.71L491.776,3101.84L493.472,3103.32L494.871,3105.12L495.933,3107.19L496.607,3109.49L496.841,3111.94L496.607,3114.39L495.933,3116.69L494.871,3118.76L493.94,3119.96L493.948,3119.96L495.903,3121.09L497.599,3122.57L498.998,3124.37L500.06,3126.44L500.734,3128.74L500.968,3131.19L500.734,3133.64L500.06,3135.94L498.998,3138.02L497.599,3139.81L495.903,3141.3L493.948,3142.42L491.779,3143.14L489.468,3143.39L486.24,3143.39L486.633,3143.89L487.695,3145.96L488.369,3148.26L488.603,3150.71L488.369,3153.16L487.695,3155.46L486.633,3157.54L485.234,3159.33L483.538,3160.82L481.583,3161.94L479.414,3162.66L477.103,3162.91L425.734,3162.91L423.423,3162.66L421.255,3161.94L419.3,3160.82L417.604,3159.33L416.204,3157.54L415.142,3155.46L414.469,3153.16L414.235,3150.71L414.469,3148.26L415.142,3145.96L416.204,3143.89L416.598,3143.39L413.369,3143.39L411.058,3143.14L408.89,3142.42L406.935,3141.3L405.239,3139.81L403.839,3138.02L402.777,3135.94L402.104,3133.64L401.87,3131.19L402.104,3128.74L402.777,3126.44L403.839,3124.37L405.239,3122.57L406.935,3121.09L408.89,3119.96L408.898,3119.96Z" style="fill:var(--on-primary);"/>
            </g>
        </g>
    </g>
</svg>
